<?xml version="1.0" encoding="UTF-8" standalone="no"?>
<svg
   xmlns:dc="http://purl.org/dc/elements/1.1/"
   xmlns:cc="http://creativecommons.org/ns#"
   xmlns:rdf="http://www.w3.org/1999/02/22-rdf-syntax-ns#"
   xmlns:svg="http://www.w3.org/2000/svg"
   xmlns="http://www.w3.org/2000/svg"
   xmlns:sodipodi="http://sodipodi.sourceforge.net/DTD/sodipodi-0.dtd"
   xmlns:inkscape="http://www.inkscape.org/namespaces/inkscape"
   width="117.4246mm"
   height="116.66865mm"
   viewBox="0 0 117.4246 116.66865"
   version="1.1"
   id="svg8"
   sodipodi:docname="03n.svg"
   inkscape:version="1.0.1 (3bc2e813f5, 2020-09-07)">
  <defs
     id="defs2" />
  <sodipodi:namedview
     id="base"
     pagecolor="#ffffff"
     bordercolor="#666666"
     borderopacity="1.0"
     inkscape:pageopacity="0.0"
     inkscape:pageshadow="2"
     inkscape:zoom="1.4"
     inkscape:cx="565.48052"
     inkscape:cy="127.68755"
     inkscape:document-units="mm"
     inkscape:current-layer="svg8"
     inkscape:document-rotation="0"
     showgrid="false"
     inkscape:window-width="2560"
     inkscape:window-height="1361"
     inkscape:window-x="2551"
     inkscape:window-y="-9"
     inkscape:window-maximized="1" />
  <metadata
     id="metadata5">
    <rdf:RDF>
      <cc:Work
         rdf:about="">
        <dc:format>image/svg+xml</dc:format>
        <dc:type
           rdf:resource="http://purl.org/dc/dcmitype/StillImage" />
        <dc:title></dc:title>
      </cc:Work>
    </rdf:RDF>
  </metadata>
  <g
     inkscape:label="Layer 1"
     inkscape:groupmode="layer"
     id="layer1"
     transform="translate(-1.9164225,-1.7638907)">
    <path
       style="fill:#4335c9;fill-opacity:1;stroke-width:1.01015"
       d=""
       id="path871"
       transform="matrix(0.26458333,0,0,0.26458333,1.9164225,1.7638907)" />
    <path
       style="fill:#dc8e7f;fill-opacity:1;stroke-width:0.252538"
       d=""
       id="path885"
       transform="matrix(0.26458333,0,0,0.26458333,1.9164225,1.7638907)" />
    <path
       style="fill:#000000;fill-opacity:1;stroke-width:0.252538"
       d=""
       id="path893"
       transform="matrix(0.26458333,0,0,0.26458333,1.9164225,1.7638907)" />
    <path
       style="fill:#000000;fill-opacity:1;stroke-width:0.252538"
       d=""
       id="path933"
       transform="matrix(0.26458333,0,0,0.26458333,1.9164225,1.7638907)" />
    <path
       style="fill:#000000;fill-opacity:1;stroke:#000000;stroke-width:0.252538;stroke-opacity:1"
       d=""
       id="path939"
       transform="matrix(0.26458333,0,0,0.26458333,1.9164225,1.7638907)" />
  </g>
  <path
     style="fill:#000000;fill-opacity:1;stroke:none;stroke-width:0.137547;stroke-opacity:1"
     d="m 70.543266,79.94635 c -0.646956,-0.09985 -2.110401,-0.242734 -3.252098,-0.317476 -1.190005,-0.07796 -2.282481,-0.220902 -2.560156,-0.335103 -0.266388,-0.109555 -1.086376,-0.26303 -1.822195,-0.341046 -0.735807,-0.07806 -1.518184,-0.233986 -1.738624,-0.346601 -0.22043,-0.112615 -0.801618,-0.247623 -1.291511,-0.300023 -0.489904,-0.05238 -1.139832,-0.204769 -1.444277,-0.33857 -0.304455,-0.133812 -0.864922,-0.287931 -1.24548,-0.342499 -0.380569,-0.05453 -0.909896,-0.205506 -1.176294,-0.33544 -0.266399,-0.129925 -0.754738,-0.277271 -1.085196,-0.32743 -0.330469,-0.05013 -0.828657,-0.204298 -1.107098,-0.34253 -0.278432,-0.138221 -0.755349,-0.295552 -1.059804,-0.349629 -0.304445,-0.05412 -0.747717,-0.216196 -0.985037,-0.360269 -0.237319,-0.144062 -0.549189,-0.261946 -0.693039,-0.261946 -0.14385,0 -0.541277,-0.14485 -0.883178,-0.321905 -0.341901,-0.177055 -0.835512,-0.362346 -1.096919,-0.411758 -0.261396,-0.04941 -0.572769,-0.173618 -0.691931,-0.276012 -0.119162,-0.102385 -0.465754,-0.263235 -0.770209,-0.357435 -0.304455,-0.09422 -0.646957,-0.246498 -0.761128,-0.338438 -0.11417,-0.09197 -0.631185,-0.367686 -1.148914,-0.612782 -0.848445,-0.40165 -1.018174,-0.436137 -1.720119,-0.349497 -0.428339,0.05289 -1.000207,0.213352 -1.27081,0.356638 -0.270613,0.143285 -0.586355,0.26083 -0.701655,0.261219 -0.115299,5.42e-4 -0.458722,0.152267 -0.763178,0.337507 -0.304455,0.185249 -0.650425,0.338734 -0.768842,0.341087 -0.118406,0.002 -0.426309,0.158067 -0.684226,0.346038 -0.257907,0.187981 -0.572976,0.341783 -0.700154,0.341783 -0.127177,0 -0.386709,0.120819 -0.576745,0.268493 -0.190026,0.147674 -0.607668,0.326683 -0.928081,0.397804 -0.320413,0.0711 -0.687085,0.221935 -0.814842,0.335143 -0.127747,0.113208 -0.48137,0.249281 -0.785815,0.302397 -0.304455,0.05309 -0.740374,0.206947 -0.968705,0.341864 -0.228342,0.134917 -0.664261,0.288995 -0.968716,0.342397 -0.304445,0.0534 -0.802643,0.204973 -1.107098,0.336831 -0.304445,0.131858 -0.92719,0.28122 -1.383863,0.331921 -0.456682,0.05074 -1.172835,0.194641 -1.59145,0.319869 -1.091099,0.326397 -5.55061,0.326561 -6.642578,2.77e-4 -0.418626,-0.125096 -1.197047,-0.269476 -1.729844,-0.320832 -0.532786,-0.05136 -1.18667,-0.200288 -1.453058,-0.330938 -0.266398,-0.130651 -0.733457,-0.281793 -1.037902,-0.33587 -0.304455,-0.05412 -0.740374,-0.209557 -0.968716,-0.345517 -0.228331,-0.13595 -0.633121,-0.291235 -0.899509,-0.345056 -0.266398,-0.05381 -0.60891,-0.207194 -0.761127,-0.340811 -0.152228,-0.133628 -0.423317,-0.286949 -0.602418,-0.340709 -0.761148,-0.228493 -3.839934,-2.452695 -4.733789,-3.419822 -0.06949,-0.07519 -0.382568,-0.413559 -0.695711,-0.751914 -0.313143,-0.338366 -0.7103022,-0.831434 -0.8825572,-1.095702 -0.172266,-0.264279 -0.415084,-0.564035 -0.539611,-0.666123 -0.124516,-0.102098 -0.226394,-0.27101 -0.226394,-0.375318 0,-0.104318 -0.124547,-0.29502 -0.276775,-0.423778 -0.152227,-0.128768 -0.276774,-0.304146 -0.276774,-0.389722 0,-0.08563 -0.148065,-0.371154 -0.329029,-0.634583 C 7.7591328,67.561095 7.5313401,67.106492 7.4338834,66.814296 7.3364371,66.522099 7.1478095,66.129226 7.0147088,65.941245 6.8816185,65.753274 6.7319177,65.363379 6.6820451,65.074814 6.632131,64.786249 6.4765586,64.324844 6.3362193,64.049476 6.19588,63.774097 6.0396242,63.179668 5.9889645,62.728524 5.9383256,62.277369 5.8095742,61.402263 5.7028907,60.783833 5.5213257,59.731364 5.5299208,59.530156 5.8371823,57.63946 6.0401627,56.390396 6.2763846,55.412813 6.4561477,55.077926 6.6160384,54.780061 6.7468609,54.438268 6.7468609,54.3184 c 0,-0.119878 0.1556759,-0.426428 0.3459603,-0.681222 0.1902845,-0.254785 0.3459708,-0.576271 0.3459708,-0.7144 0,-0.138139 0.0961,-0.287573 0.2134708,-0.332085 0.117412,-0.0445 0.331338,-0.304043 0.475385,-0.576731 0.144057,-0.272697 0.546186,-0.793213 0.893627,-1.156694 0.347441,-0.363492 0.631713,-0.717234 0.631713,-0.786093 0,-0.06885 0.07953,-0.125209 0.17676,-0.125209 0.09724,0 0.3415082,-0.169188 0.5428622,-0.375962 0.485285,-0.498357 0.787514,-0.746829 1.283392,-1.055128 0.226353,-0.140738 0.475458,-0.307829 0.553549,-0.371308 0.40156,-0.326437 1.225929,-0.801336 1.515762,-0.873204 0.180788,-0.04481 0.452354,-0.195305 0.603484,-0.334386 0.151119,-0.139101 0.500331,-0.294703 0.776008,-0.345793 0.275677,-0.05105 0.643612,-0.203541 0.817648,-0.338775 0.174027,-0.135234 0.68081,-0.312422 1.126184,-0.393763 1.371787,-0.250518 1.685324,-0.614736 2.247334,-2.610568 0.116449,-0.413548 0.282988,-0.83704 0.370089,-0.941082 0.08709,-0.104052 0.282915,-0.42252 0.435143,-0.707719 0.718566,-1.346231 0.965454,-1.678724 1.989396,-2.679193 0.603505,-0.589672 1.243471,-1.179303 1.422168,-1.310312 0.725038,-0.531554 1.579469,-1.055742 1.724686,-1.058085 0.08492,-10e-4 0.309902,-0.123387 0.500052,-0.271143 0.19016,-0.147766 0.638413,-0.333465 0.996138,-0.412658 0.357714,-0.07918 0.808183,-0.24613 1.001046,-0.370959 0.263799,-0.170764 0.812895,-0.246325 2.217033,-0.305087 l 1.866393,-0.07816 0.389081,-0.430469 c 0.235041,-0.260043 0.451484,-0.717919 0.546693,-1.15647 0.08668,-0.399297 0.243088,-0.820794 0.347566,-0.936652 0.104478,-0.115858 0.259719,-0.469518 0.344976,-0.785909 0.08523,-0.316381 0.220761,-0.615381 0.301111,-0.664435 0.08036,-0.0491 0.26326,-0.359256 0.406478,-0.689336 0.143218,-0.330079 0.313351,-0.600137 0.378073,-0.600137 0.06472,0 0.224044,-0.199941 0.354038,-0.444321 0.329775,-0.619903 0.902803,-1.379806 1.138911,-1.510345 0.109034,-0.06026 0.198247,-0.168062 0.198247,-0.239521 0,-0.07151 0.359444,-0.483656 0.79876,-0.916007 1.370555,-1.348829 2.89137,-2.515785 3.802613,-2.917824 0.209307,-0.09238 0.380558,-0.214784 0.380558,-0.272074 0,-0.05729 0.23353,-0.180165 0.518951,-0.273066 0.285422,-0.09289 0.674637,-0.276473 0.864922,-0.407962 0.190284,-0.131479 0.581292,-0.278683 0.868908,-0.327123 0.287607,-0.04839 0.723526,-0.200943 0.968706,-0.338908 0.245169,-0.137965 0.862012,-0.289946 1.370752,-0.337732 0.508751,-0.04777 1.186028,-0.177873 1.505064,-0.289066 0.689436,-0.240309 4.007271,-0.283746 4.43414,-0.05811 0.149928,0.07928 0.918418,0.227869 1.707754,0.330223 0.789336,0.102354 1.581116,0.280473 1.759513,0.395809 0.178385,0.115346 0.604581,0.25372 0.947093,0.307511 0.342502,0.05381 0.896672,0.241455 1.23149,0.417037 0.334817,0.175592 0.710177,0.319255 0.834124,0.319255 0.123956,0 0.361566,0.09422 0.528032,0.209414 0.166457,0.115182 0.566432,0.301363 0.888833,0.413742 0.322412,0.112369 0.682694,0.287696 0.800645,0.38961 0.11795,0.101893 0.37014,0.230405 0.560414,0.285536 0.190285,0.05514 0.470518,0.209138 0.622746,0.342244 0.152227,0.133095 0.423037,0.285894 0.601806,0.339562 0.178769,0.05361 0.427863,0.189362 0.553549,0.301558 0.125676,0.112195 0.571019,0.412709 0.989644,0.667821 0.933849,0.569079 0.985606,0.607248 2.698549,1.989602 1.626225,1.312389 2.740873,2.396592 3.917457,3.810465 0.469296,0.563943 0.941926,1.127508 1.050297,1.252378 0.108372,0.124871 0.302332,0.446244 0.431022,0.714144 0.354224,0.737438 1.305894,0.835649 2.107512,0.217505 0.170588,-0.13155 0.54424,-0.282058 0.830324,-0.334457 0.286084,-0.05238 0.706978,-0.206703 0.935308,-0.342888 0.228342,-0.136196 0.757669,-0.292043 1.176295,-0.346335 0.418625,-0.05432 0.947953,-0.198805 1.176294,-0.321138 0.338629,-0.181434 0.973635,-0.231051 3.445002,-0.2692 2.761118,-0.04266 3.104789,-0.02189 3.874833,0.23322 0.46475,0.153986 1.125231,0.323235 1.467732,0.376105 0.342512,0.05289 0.896683,0.239797 1.2315,0.41539 0.334818,0.175581 0.745522,0.319245 0.912661,0.319245 0.16715,0 0.413428,0.119551 0.547295,0.26567 0.133856,0.146129 0.417279,0.303409 0.629838,0.349537 0.212549,0.04614 0.495983,0.203408 0.629839,0.349527 0.133857,0.146119 0.295456,0.26567 0.359112,0.26567 0.118396,0 1.23791,0.809132 1.676585,1.211743 0.537104,0.492966 1.260216,1.260389 1.464025,1.553762 0.118644,0.170784 0.327827,0.390899 0.464853,0.48916 0.137015,0.09821 0.249125,0.25634 0.249125,0.351297 0,0.09494 0.155686,0.306396 0.34597,0.469835 0.190285,0.163449 0.345971,0.365599 0.345971,0.449231 0,0.08358 0.155687,0.334847 0.345961,0.558245 0.190284,0.223398 0.34597,0.484209 0.34597,0.579575 0,0.09535 0.121016,0.281578 0.268936,0.413814 0.147909,0.132247 0.307903,0.415727 0.355529,0.62998 0.04763,0.214242 0.212404,0.547523 0.366143,0.740609 0.153751,0.193086 0.326301,0.691484 0.383451,1.107538 0.0572,0.416055 0.20089,0.852263 0.31942,0.969348 0.1435,0.141781 0.78651,0.280514 1.924955,0.415339 1.06968,0.126671 1.86484,0.293475 2.12462,0.445681 0.22834,0.133791 0.5848,0.282683 0.79214,0.330877 0.20734,0.04819 0.60524,0.240667 0.88424,0.427697 0.27898,0.18704 0.57813,0.340064 0.66475,0.340064 0.0867,0 0.26381,0.107663 0.39372,0.239245 0.12992,0.131592 0.42706,0.393046 0.66031,0.581027 0.23325,0.187982 0.65456,0.57845 0.93624,0.867721 0.28168,0.289261 0.64361,0.658389 0.80429,0.820273 0.16067,0.161873 0.33351,0.424637 0.38409,0.583902 0.0505,0.159265 0.21492,0.399502 0.3652,0.533856 0.15029,0.134354 0.27324,0.312749 0.27324,0.396433 0,0.08368 0.14733,0.366366 0.32741,0.628189 0.18007,0.261833 0.37361,0.691371 0.43009,0.954545 0.0564,0.263163 0.21309,0.663053 0.34804,0.88862 0.37224,0.622246 0.84801,4.412373 0.68644,5.468484 -0.069,0.451144 -0.19414,1.373945 -0.27804,2.050676 -0.0839,0.676722 -0.23672,1.360359 -0.3396,1.519194 -0.10283,0.158825 -0.28024,0.641356 -0.39415,1.072264 -0.11391,0.430919 -0.29754,0.885409 -0.40808,1.009973 -0.11054,0.124574 -0.24572,0.380299 -0.30038,0.56828 -0.092,0.316279 -0.29756,0.670042 -0.98367,1.692802 -0.1454,0.216718 -0.33332,0.510848 -0.41762,0.653611 -0.0843,0.142763 -0.25268,0.365333 -0.37415,0.494592 -0.53673,0.571135 -0.89689,0.963302 -1.47045,1.601159 -0.63405,0.705121 -2.11587,2.067024 -2.90165,2.666845 -0.24626,0.187981 -0.58235,0.464822 -0.74687,0.615207 -0.16452,0.150385 -0.40102,0.334938 -0.52556,0.410141 -0.12453,0.07519 -0.40593,0.254222 -0.6253,0.397845 -0.21938,0.143633 -0.647955,0.414714 -0.952415,0.602409 -0.30445,0.187704 -0.71043,0.446039 -0.90219,0.574091 -0.19175,0.128052 -0.50312,0.279296 -0.69193,0.336105 -0.18881,0.05678 -0.467844,0.211685 -0.620071,0.344167 -0.152228,0.132471 -0.505313,0.313117 -0.784656,0.401415 -0.279332,0.08829 -0.582762,0.249679 -0.674285,0.358611 -0.09154,0.108942 -0.27404,0.198078 -0.405619,0.198078 -0.131568,0 -0.518485,0.146692 -0.859806,0.325977 -0.341331,0.179296 -0.833233,0.370489 -1.093107,0.424884 -0.259885,0.05443 -0.659342,0.207469 -0.887684,0.340166 -0.228341,0.132697 -0.69539,0.282969 -1.037901,0.333946 -0.342512,0.05095 -0.768242,0.186754 -0.946079,0.301732 -0.177837,0.114978 -0.738304,0.271122 -1.24548,0.34699 -0.507187,0.07591 -1.065417,0.228206 -1.24051,0.33856 -0.175103,0.110344 -0.889671,0.263644 -1.58794,0.340657 -0.698258,0.07703 -1.489106,0.230836 -1.757441,0.341814 -0.27956,0.115622 -1.344656,0.258836 -2.494481,0.335399 -1.103639,0.07345 -2.551541,0.223807 -3.217562,0.334059 -1.538451,0.254672 -6.726261,0.246979 -8.406947,-0.01248 z m 2.342306,-4.361662 c 0.235124,-0.120113 0.480324,-0.420024 0.61474,-0.751914 0.122994,-0.303654 0.278835,-0.552096 0.346333,-0.552096 0.06752,0 0.202805,-0.190999 0.300676,-0.424433 0.237775,-0.567084 1.588499,-1.953929 1.818476,-1.867115 0.266875,0.100768 0.166136,1.881406 -0.106435,1.881406 -0.22017,0 -0.268904,0.48606 -0.06141,0.612732 0.07394,0.04511 0.174047,-0.07427 0.222583,-0.265353 0.05437,-0.21414 0.185645,-0.347379 0.342181,-0.347379 0.139656,0 0.347762,-0.132349 0.462451,-0.294099 0.878394,-1.238916 2.168268,-2.080017 1.965433,-1.281627 -0.08647,0.340228 -0.523694,1.068305 -1.035427,1.724096 -0.151689,0.194385 -0.319284,0.532741 -0.372429,0.751914 -0.05312,0.219163 -0.157095,0.474356 -0.230982,0.567104 -0.170723,0.214283 0.401094,0.446582 1.0993,0.446582 0.525931,0 1.348498,-0.422868 1.552876,-0.798309 0.297227,-0.545999 2.782223,-3.167851 2.999079,-3.16424 0.06928,0.001 0.204275,0.05125 0.300034,0.111285 0.227233,0.142518 -0.08274,1.214005 -0.50436,1.743543 -0.160864,0.202038 -0.292494,0.443789 -0.292494,0.537232 0,0.0934 -0.08968,0.24344 -0.199346,0.333343 -0.321873,0.26389 -0.09776,0.55359 0.428174,0.55359 0.391587,0 0.517791,-0.07632 0.711731,-0.430152 0.129652,-0.236595 0.375857,-0.555288 0.547107,-0.70822 0.171251,-0.152932 0.311373,-0.3319 0.311373,-0.397701 0,-0.06578 0.36692,-0.490071 0.81538,-0.942832 0.676823,-0.683309 0.882589,-0.815597 1.210882,-0.778512 0.320382,0.03621 0.40419,0.119878 0.441243,0.440535 0.02734,0.236197 -0.06131,0.539473 -0.219684,0.751914 -0.672173,0.901757 -0.723692,1.51812 -0.126908,1.51812 0.299774,0 0.677847,-0.367062 1.689736,-1.640545 0.908467,-1.143324 1.100367,-1.36262 1.853064,-2.117654 0.611437,-0.613314 0.836444,-0.753295 1.210893,-0.753295 0.436023,0 0.459903,0.02568 0.459903,0.493569 0,0.457528 -0.725628,1.830531 -0.967432,1.830531 -0.04981,0 -0.255918,0.249609 -0.458101,0.554675 l -0.367604,0.554664 0.440828,0.183112 c 0.429158,0.178262 0.897822,0.108645 1.278577,-0.189925 0.0786,-0.06169 0.292722,-0.157546 0.475809,-0.213127 0.183088,-0.05555 0.768459,-0.555268 1.300821,-1.110423 0.532361,-0.555156 1.044747,-1.009379 1.138631,-1.009379 0.09392,0 0.20327,-0.12304 0.243087,-0.273424 0.03977,-0.150385 0.171614,-0.273425 0.292909,-0.273425 0.294938,0 0.278566,0.208268 -0.03987,0.507339 -0.187903,0.176472 -0.241327,0.3683 -0.191879,0.688886 0.0669,0.433609 0.220895,0.566869 0.373392,0.323102 0.04173,-0.0667 0.280907,-0.159213 0.531543,-0.205669 0.448865,-0.08317 0.964108,-0.489058 1.601973,-1.261913 0.178634,-0.216442 0.530646,-0.625417 0.782246,-0.908836 l 0.45745,-0.515308 0.2682,0.363726 c 0.23237,0.315133 0.33331,0.351655 0.75562,0.273384 0.26807,-0.04972 0.59903,-0.212166 0.735435,-0.361078 0.13642,-0.148911 0.33126,-0.270754 0.43299,-0.270754 0.10169,0 0.26273,-0.123039 0.35781,-0.273424 0.0951,-0.150385 0.22247,-0.273424 0.28311,-0.273424 0.2807,0 2.28793,-1.826746 3.15458,-2.870949 0.53046,-0.639125 1.08769,-1.305698 1.23829,-1.48126 0.15061,-0.175571 0.27383,-0.394325 0.27383,-0.486111 0,-0.09176 0.15243,-0.37099 0.33872,-0.620445 0.18629,-0.249455 0.38095,-0.643483 0.43255,-0.875608 0.0516,-0.232135 0.20498,-0.578296 0.34081,-0.769244 0.13584,-0.190948 0.28972,-0.653969 0.34198,-1.028939 0.0523,-0.37496 0.17501,-0.836365 0.27281,-1.025338 0.38706,-0.747853 0.37402,-2.257543 -0.0195,-2.257543 -0.0776,0 -0.44387,0.260084 -0.81411,0.57798 -0.48096,0.412934 -0.70453,0.53005 -0.78298,0.410131 -0.16163,-0.247061 0.0106,-0.882115 0.38832,-1.432012 0.18244,-0.265588 0.33171,-0.559994 0.33171,-0.654245 0,-0.09422 0.0854,-0.203746 0.18984,-0.243327 0.1044,-0.03959 0.32612,-0.35008 0.49268,-0.68999 l 0.30285,-0.618031 -0.28931,-0.95967 c -0.15911,-0.52782 -0.3475,-0.99521 -0.41864,-1.038648 -0.14709,-0.08982 -1.24614,0.588691 -1.24614,0.769296 0,0.06496 -0.22603,0.365322 -0.5023,0.667412 -0.41153,0.450008 -0.53873,0.5194 -0.70386,0.384013 -0.1341,-0.109945 -0.17418,-0.300504 -0.11975,-0.569345 0.0776,-0.382949 0.67461,-1.420881 1.07471,-1.868209 0.10148,-0.113474 0.32661,-0.444219 0.50029,-0.734993 0.30368,-0.508495 0.30634,-0.538961 0.0695,-0.797521 -0.50538,-0.551677 -0.68905,-0.556086 -1.27773,-0.03069 -0.3032,0.270611 -0.58761,0.605131 -0.63203,0.743382 -0.11188,0.348238 -0.83161,0.588435 -1.0356,0.345609 -0.20375,-0.242529 -0.0414,-0.875352 0.33392,-1.3018 0.16546,-0.187981 0.47927,-0.606082 0.69737,-0.929123 0.34404,-0.50959 0.37031,-0.613263 0.19845,-0.783045 -0.10895,-0.107632 -0.39423,-0.234446 -0.63396,-0.281813 -0.38073,-0.07519 -0.49787,-0.01944 -0.92606,0.441262 -0.90739,0.976213 -1.32233,1.507399 -1.46297,1.872844 -0.10887,0.282877 -0.23265,0.36343 -0.55846,0.36343 -0.39366,0 -0.41858,-0.03151 -0.41858,-0.528403 0,-0.307563 0.10773,-0.664691 0.25774,-0.854452 0.14174,-0.179326 0.3046,-0.47984 0.36186,-0.667821 0.0573,-0.187981 0.21293,-0.464822 0.34591,-0.615207 0.57865,-0.65442 0.31872,-1.349484 -0.44968,-1.202424 -0.39299,0.07519 -0.930985,0.618798 -0.930985,0.940652 0,0.09893 -0.10678,0.238866 -0.23728,0.31102 -0.13051,0.07212 -0.30605,0.332944 -0.3901,0.579565 -0.0841,0.246611 -0.23605,0.475789 -0.33776,0.509283 -0.31884,0.104993 -0.0757,-1.271888 0.28804,-1.631246 l 0.30641,-0.302693 -0.31434,-0.25146 c -0.23833,-0.190651 -0.54877,-0.251449 -1.28371,-0.251449 -0.963456,0 -0.972662,0.0031 -1.509466,0.581017 -0.297051,0.319563 -0.604716,0.81571 -0.683688,1.102536 -0.186608,0.677703 -0.454673,0.583779 -0.543276,-0.190344 -0.06358,-0.555872 -0.103142,-0.607872 -0.490359,-0.645325 -0.518392,-0.05013 -1.647071,0.745336 -1.775646,1.251447 -0.102831,0.404699 -0.78246,1.455173 -0.941471,1.455173 -0.06255,0 -0.113808,-0.241936 -0.113808,-0.537641 0,-0.643934 -0.301669,-0.806206 -0.913148,-0.491176 -0.419195,0.215961 -1.39691,0.277056 -1.662956,0.103919 -0.232753,-0.151479 -0.360893,-0.675811 -0.267537,-1.094678 0.0814,-0.365078 0.426558,-0.643821 1.452789,-1.173166 0.27024,-0.139387 0.58475,-0.330611 0.698921,-0.424944 0.11416,-0.09432 0.421494,-0.242529 0.682943,-0.329313 0.261458,-0.08675 0.57282,-0.242354 0.691941,-0.345731 0.11911,-0.103377 0.549417,-0.257015 0.956237,-0.341415 0.406821,-0.0844 0.872161,-0.245127 1.034091,-0.357179 0.161941,-0.112052 0.422406,-0.203725 0.578817,-0.203725 0.156411,0 0.430928,-0.101382 0.610039,-0.225342 0.300458,-0.2079 0.319388,-0.291706 0.24462,-1.082669 -0.04453,-0.471533 -0.208396,-1.09209 -0.364062,-1.379008 -0.155655,-0.286918 -0.283019,-0.621775 -0.283019,-0.744139 0,-0.396556 -1.540428,-2.171803 -1.885881,-2.173337 -0.233385,-10e-4 -0.454591,0.31548 -0.550059,0.787044 -0.106042,0.523769 -0.80372,1.230598 -0.963145,0.975763 -0.215656,-0.344709 -0.07787,-1.635226 0.226508,-2.121787 0.392468,-0.62734 0.281766,-1.270322 -0.27461,-1.595 -0.220637,-0.128758 -0.469958,-0.234099 -0.554046,-0.234099 -0.453182,0 -1.800986,1.990215 -2.01367,2.973476 -0.05292,0.24437 -0.150519,0.444321 -0.217012,0.444321 -0.06648,0 -0.228735,0.224482 -0.360531,0.498858 -0.205372,0.427553 -0.253567,0.461753 -0.337137,0.239245 -0.131144,-0.349138 0.0021,-0.98987 0.310212,-1.490027 0.13889,-0.225567 0.252771,-0.483032 0.25305,-0.572117 8.18e-4,-0.2128 0.213606,-0.668149 0.627457,-1.341842 0.878167,-1.429536 0.925761,-1.736986 0.305035,-1.970134 -0.176335,-0.06619 -0.403517,-0.219111 -0.504846,-0.339726 -0.101278,-0.120625 -0.354473,-0.219317 -0.562538,-0.219317 -0.29762,0 -0.50058,0.161546 -0.951764,0.757551 -0.315411,0.416658 -0.573473,0.80459 -0.573473,0.862074 0,0.05749 -0.149432,0.304606 -0.332073,0.54917 -0.182642,0.244565 -0.373041,0.660353 -0.4231,0.923967 -0.156276,0.822922 -0.425481,0.471676 -0.385819,-0.50339 0.02703,-0.66462 0.116118,-0.982985 0.380569,-1.35996 0.189891,-0.270703 0.345266,-0.582859 0.345266,-0.693663 0,-0.110814 0.09703,-0.338315 0.215594,-0.505569 0.118582,-0.167245 0.174803,-0.369282 0.124951,-0.448986 -0.153812,-0.245854 -0.800696,-0.423553 -1.243285,-0.341527 -0.40128,0.07437 -0.525164,0.208319 -1.657416,1.792076 -0.07611,0.106456 -0.211596,0.147776 -0.301069,0.09177 -0.124008,-0.07755 -0.119825,-0.296289 0.0176,-0.920253 0.0991,-0.450172 0.223878,-0.921439 0.277199,-1.047251 0.132552,-0.31279 -0.301514,-0.523155 -1.079438,-0.523155 -0.51921,0 -0.68869,0.07202 -1.046301,0.44431 -0.234689,0.244371 -0.660564,0.685499 -0.946378,0.980295 l -0.519656,0.535973 -0.04411,-0.443113 c -0.02537,-0.254458 0.05613,-0.594235 0.191288,-0.798022 0.223029,-0.336269 0.222139,-0.364453 -0.01698,-0.537171 -0.429892,-0.310529 -1.063967,-0.220615 -1.552462,0.220156 -0.245304,0.221331 -0.446006,0.493988 -0.446006,0.605887 0,0.189556 -0.68083,0.768937 -0.903579,0.768937 -0.05488,0 -0.06389,-0.176984 -0.02009,-0.393292 0.136746,-0.675453 -0.152424,-0.892642 -1.064702,-0.799618 -0.431394,0.04399 -0.985616,0.199848 -1.231614,0.346376 -0.245987,0.146528 -0.670039,0.305455 -0.94233,0.35318 -0.659362,0.11555 -1.43477,0.944437 -1.232608,1.317606 0.0757,0.139817 0.193826,0.288473 0.262401,0.330335 0.06855,0.04184 0.169045,0.399031 0.223278,0.793705 0.05426,0.394673 0.218638,0.951434 0.365356,1.237247 0.197078,0.383932 0.256032,0.739546 0.225732,1.361628 l -0.04101,0.841971 -0.622745,0.182671 c -0.465857,0.136656 -0.749477,0.146446 -1.125841,0.03887 -0.513401,-0.146753 -0.764897,-0.518132 -1.415592,-2.090359 -0.116698,-0.281967 -0.300489,-0.512669 -0.408436,-0.512669 -0.175372,0 -0.750865,0.722982 -1.130419,1.420134 -0.251942,0.462755 -0.417518,0.228441 -0.40565,-0.57402 0.0072,-0.507656 0.099,-0.918227 0.258114,-1.158107 0.364642,-0.549774 0.462388,-2.076231 0.154474,-2.412346 -0.189922,-0.207317 -0.320123,-0.234918 -0.657426,-0.139347 -0.497432,0.140932 -0.754468,0.448567 -0.867738,1.038525 -0.04546,0.23681 -0.173985,0.505437 -0.285598,0.596946 -0.111612,0.09146 -0.271648,0.4185 -0.355643,0.726666 -0.08398,0.308156 -0.264233,0.700333 -0.400534,0.871506 -0.13629,0.171172 -0.289543,0.531032 -0.340565,0.799689 -0.0554,0.291644 -0.159259,0.465354 -0.257803,0.431123 -0.302384,-0.105054 -0.14823,-1.735737 0.242466,-2.564931 0.193008,-0.409599 0.351522,-0.874861 0.352267,-1.0339 8.18e-4,-0.15904 0.122041,-0.44073 0.269546,-0.62599 0.147506,-0.18526 0.310607,-0.516536 0.362437,-0.73617 0.05178,-0.219643 0.18404,-0.541344 0.293809,-0.71489 0.178603,-0.282396 0.168931,-0.378049 -0.09206,-0.910586 -0.325084,-0.663411 -0.549376,-0.804088 -1.006607,-0.63134 -0.434346,0.164104 -0.747624,0.552199 -0.857207,1.061922 -0.05147,0.239183 -0.182456,0.50781 -0.291179,0.596956 -0.108734,0.08911 -0.259139,0.387522 -0.334248,0.663054 -0.183916,0.674747 -0.420045,0.958555 -0.834145,1.002576 -0.328366,0.03489 -0.345743,0.002 -0.341508,-0.646768 0.0031,-0.463082 0.125769,-0.923731 0.380569,-1.428144 0.206854,-0.409517 0.376106,-0.847239 0.376106,-0.972724 0,-0.125474 0.125085,-0.385251 0.277986,-0.577273 0.585444,-0.735259 0.471336,-1.817539 -0.224665,-2.13082 -0.576943,-0.259695 -0.860428,-0.185485 -1.107243,0.289864 -0.126888,0.24437 -0.346447,0.591033 -0.487905,0.770349 -0.141468,0.179326 -0.257213,0.431257 -0.257213,0.559841 0,0.128584 -0.121015,0.341997 -0.268925,0.474234 -0.147919,0.132236 -0.306629,0.409967 -0.352691,0.617171 -0.09931,0.446571 -0.813941,1.167805 -1.027785,1.037246 -0.265342,-0.162006 -0.165565,-1.209442 0.176574,-1.853559 0.179401,-0.337773 0.370845,-0.798677 0.425419,-1.024254 0.05457,-0.225577 0.21053,-0.533181 0.346561,-0.683566 0.353334,-0.390581 0.566411,-1.108367 0.470155,-1.583818 -0.110308,-0.544843 -0.494159,-0.795413 -1.047315,-0.683647 -0.454756,0.09187 -0.882536,0.631902 -1.49388,1.885846 -0.154278,0.316452 -0.344852,0.614654 -0.423493,0.662665 -0.0786,0.04798 -0.201789,0.240125 -0.273678,0.426909 -0.07187,0.186784 -0.208169,0.313138 -0.30284,0.280769 -0.260236,-0.0889 -0.125427,-0.902125 0.256229,-1.545485 0.183025,-0.308524 0.332768,-0.651259 0.332768,-0.761623 0,-0.110374 0.155686,-0.409139 0.34597,-0.663933 0.369116,-0.494255 0.455606,-1.204112 0.179898,-1.476483 -0.218483,-0.215848 -1.145849,-0.21105 -1.322308,0.0072 -0.07611,0.09402 -0.184517,0.324688 -0.240893,0.512669 -0.05633,0.187971 -0.18784,0.438132 -0.292152,0.555913 -0.104312,0.117771 -0.274466,0.456136 -0.378125,0.751914 -0.161009,0.459431 -0.246919,0.537784 -0.589701,0.537784 -0.358739,0 -0.396382,-0.04082 -0.355435,-0.385752 0.02516,-0.212166 0.131599,-0.588619 0.23647,-0.836559 0.104861,-0.247951 0.232318,-0.852386 0.283216,-1.343193 0.08243,-0.795096 0.06338,-0.907782 -0.174731,-1.033686 -0.333554,-0.176359 -0.497794,-0.07468 -0.790154,0.488986 -0.142307,0.274376 -0.334952,0.444321 -0.503666,0.444321 -0.15028,0 -0.316954,0.01534 -0.370389,0.03417 -0.05344,0.01882 -0.16541,-0.242672 -0.248804,-0.581028 -0.204803,-0.830994 -0.584885,-0.842932 -0.966842,-0.03038 -0.172928,0.367901 -0.352587,0.569468 -0.484352,0.543432 -0.22801,-0.04501 -0.243067,-0.380105 -0.07,-1.558458 0.09175,-0.624874 0.07187,-0.720241 -0.177371,-0.852037 -0.442579,-0.233997 -1.078859,0.05115 -1.279499,0.573375 -0.09206,0.239501 -0.369633,0.851741 -0.616935,1.360543 -0.387797,0.797868 -0.474236,0.895823 -0.628493,0.71221 -0.141934,-0.168942 -0.147961,-0.458745 -0.0292,-1.403602 0.08233,-0.654879 0.189042,-1.290496 0.237196,-1.412481 0.06503,-0.164769 -0.01232,-0.240739 -0.301028,-0.295481 -0.483379,-0.09166 -0.674885,0.05944 -0.885995,0.699095 -0.09113,0.275951 -0.273906,0.639432 -0.406282,0.80773 -0.132376,0.168309 -0.280896,0.570818 -0.330023,0.894483 -0.0932,0.613673 -0.668942,1.387582 -0.95834,1.288092 -0.107046,-0.03683 -0.153252,-0.437793 -0.138692,-1.203529 0.02102,-1.108459 0.13019,-1.563992 0.496075,-2.071136 0.350103,-0.485273 -0.290465,-0.923598 -1.068016,-0.730799 -0.176439,0.04379 -0.390158,0.258662 -0.487076,0.489815 -0.09496,0.226528 -0.222408,0.41188 -0.283164,0.41188 -0.06079,0 -0.213885,0.307563 -0.340275,0.683484 -0.203571,0.605447 -0.618914,1.093768 -0.930338,1.093768 -0.22916,0 -0.09796,-1.166485 0.169179,-1.503828 0.327227,-0.413271 0.352713,-0.861244 0.06255,-1.099149 -0.176138,-0.14441 -0.301669,-0.134446 -0.706066,0.05606 -0.27051,0.127438 -0.526366,0.362131 -0.568565,0.521538 -0.04225,0.159408 -0.24491,0.603432 -0.45048,0.986719 -0.205569,0.383277 -0.417186,0.930657 -0.470269,1.216389 -0.08471,0.456146 -0.133556,0.508259 -0.400296,0.427328 -0.167088,-0.05074 -0.317079,-0.102773 -0.333306,-0.115735 -0.01626,-0.01299 0.06089,-0.359052 0.171344,-0.769111 0.234431,-0.870247 0.26381,-1.718316 0.06379,-1.840465 -0.226364,-0.138201 -1.69772,0.2168 -2.057578,0.496434 -0.181689,0.141187 -0.441708,0.256697 -0.577833,0.256697 -0.136124,0 -0.432512,0.153802 -0.658648,0.341783 -0.226136,0.187981 -0.469161,0.341773 -0.540045,0.341773 -0.07083,0 -0.275139,0.153801 -0.453908,0.341782 -0.178758,0.187982 -0.383789,0.341783 -0.455616,0.341783 -0.166197,0 -2.27839,2.163189 -2.696508,2.761608 -0.732059,1.047742 -1.046104,1.56834 -1.179225,1.954809 -0.07777,0.225648 -0.255908,0.556996 -0.395958,0.736312 -0.140039,0.179327 -0.254623,0.413835 -0.254623,0.52114 0,0.107305 -0.161662,0.53269 -0.359247,0.945297 -0.534277,1.115691 -0.329433,1.710274 0.681865,1.979299 0.311943,0.08297 0.717862,0.267982 0.902057,0.411114 0.184196,0.143141 0.397635,0.260247 0.474308,0.260247 0.07663,0 0.48863,0.287061 0.915457,0.637918 0.694696,0.571053 1.054233,0.921358 1.960846,1.910522 0.3803,0.414939 0.339281,0.986228 -0.103597,1.442907 -0.462027,0.476413 -1.183585,0.511758 -2.004216,0.09821 l -0.566027,-0.285271 -0.596007,0.641325 c -0.327807,0.352719 -0.677786,0.614685 -0.777738,0.582133 -0.113228,-0.03693 -0.207848,-0.379113 -0.250999,-0.907936 -0.07342,-0.899629 -0.2845,-1.190772 -0.702898,-0.969552 -0.128441,0.06793 -0.273709,0.335051 -0.322816,0.593662 -0.06762,0.356207 -0.185282,0.503257 -0.485274,0.606562 -0.560228,0.192932 -0.703136,-0.01269 -0.703136,-1.011599 0,-0.572629 -0.06483,-0.897736 -0.20151,-1.009768 -0.287068,-0.235357 -0.460265,-0.07734 -0.637916,0.581826 -0.08523,0.316391 -0.24432,0.674215 -0.353468,0.795157 -0.109138,0.120953 -0.281911,0.694164 -0.383945,1.273821 -0.196135,1.114209 -0.27139,1.25866 -0.693774,1.331622 -0.358015,0.06179 -0.488392,-0.456587 -0.476317,-1.893938 0.01263,-1.498375 -0.332913,-1.994267 -0.786167,-1.128388 -0.184838,0.353108 -0.287742,0.411645 -0.660896,0.375962 -0.438198,-0.04194 -0.441967,-0.0487 -0.442506,-0.794185 -5.48e-4,-0.738697 -0.0083,-0.75263 -0.424414,-0.792886 -0.342616,-0.03315 -0.455254,0.02711 -0.587598,0.314038 -0.09009,0.195255 -0.163733,0.448198 -0.163733,0.562102 0,0.113903 -0.147795,0.526275 -0.328418,0.916375 -0.180633,0.390101 -0.367013,0.820836 -0.414183,0.957184 -0.144813,0.418561 -0.327351,0.135408 -0.428546,-0.664711 -0.05561,-0.439614 -0.17557,-0.792211 -0.283454,-0.833111 -0.102832,-0.03898 -0.393721,0.07223 -0.646315,0.247255 -0.252584,0.174999 -0.49039,0.338816 -0.528447,0.364054 -0.038,0.02527 -0.100346,0.425323 -0.138382,0.889092 l -0.06918,0.843208 -0.619462,0.06834 c -0.463176,0.05115 -0.658306,0.145731 -0.773419,0.375021 -0.08471,0.168667 -0.257079,0.419236 -0.383127,0.556833 -0.126049,0.137597 -0.266989,0.522695 -0.313206,0.855762 -0.114522,0.825408 0.135348,1.021461 1.447757,1.135958 0.702659,0.06128 1.127478,0.173075 1.367935,0.359921 0.191807,0.149065 0.427873,0.27102 0.524574,0.27102 0.285566,0 1.359102,0.949972 1.611106,1.425658 0.128026,0.24169 0.330416,0.519493 0.449754,0.617325 0.119328,0.0978 0.216961,0.311225 0.216961,0.474203 0,0.162968 0.09392,0.652589 0.208748,1.08804 0.18957,0.719013 0.187913,0.835096 -0.01802,1.263866 -0.292236,0.608384 -0.684776,0.872959 -1.294007,0.872171 -0.630947,-8.18e-4 -1.317307,-0.611299 -1.445343,-1.285575 -0.05054,-0.265987 -0.173664,-0.531432 -0.273658,-0.589867 -0.100035,-0.05842 -0.253112,-0.240503 -0.340254,-0.404586 -0.08709,-0.164094 -0.298625,-0.340545 -0.469959,-0.392136 -0.171333,-0.05156 -0.421308,-0.189035 -0.555485,-0.305466 -0.335947,-0.291501 -2.106891,-0.289291 -2.700713,0.0031 -0.240002,0.118283 -0.703147,0.25813 -1.029224,0.310785 -0.326078,0.05269 -0.810824,0.208104 -1.077222,0.345435 -0.266399,0.137342 -0.712373,0.318315 -0.991074,0.402183 -0.27869,0.08389 -0.538005,0.233024 -0.576249,0.33148 -0.03821,0.09842 -0.273191,0.219255 -0.522109,0.268443 -0.248908,0.04921 -0.561336,0.186651 -0.694271,0.305506 -0.132935,0.118845 -0.426507,0.318059 -0.652383,0.442684 -1.342533,0.740773 -3.533792,2.748103 -3.791792,3.473511 -0.07352,0.206774 -0.183874,0.375962 -0.245189,0.375962 -0.176584,0 -1.1069332,1.900782 -1.1069332,2.261573 0,0.179203 -0.124547,0.63798 -0.276764,1.019507 -0.154226,0.38653 -0.276774,1.016049 -0.276774,1.42174 0,0.605069 0.07094,0.816293 0.42022,1.250435 0.2311172,0.287306 0.3903762,0.599217 0.3538932,0.69312 -0.03645,0.09391 -0.107398,0.529437 -0.1576132,0.967834 -0.07901,0.689591 -0.05209,0.842933 0.1996572,1.137104 l 0.29093,0.340023 0.280492,-0.341783 c 0.154268,-0.187981 0.434501,-0.524209 0.622735,-0.747167 0.188245,-0.222968 0.342264,-0.457303 0.342264,-0.520741 0,-0.06343 0.06224,-0.07734 0.138382,-0.0309 0.223546,0.136492 0.159228,0.754451 -0.126391,1.214271 -0.311942,0.502183 -0.57223,1.774858 -0.469968,2.29788 0.03956,0.202273 0.18667,0.470367 0.326916,0.595759 0.240074,0.214631 0.275232,0.206426 0.600284,-0.140062 0.356585,-0.380095 0.892395,-0.423206 0.788663,-0.06343 -0.03127,0.108318 -0.11969,0.583503 -0.19655,1.055968 -0.125344,0.770379 -0.111457,0.896467 0.13453,1.221953 0.667171,0.88279 1.34653,1.043118 1.520391,0.358806 0.16076,-0.632772 0.397106,-0.235818 0.466644,0.783699 0.03811,0.55802 0.115973,1.085748 0.173167,1.172716 0.174968,0.266109 1.381304,1.003926 1.641417,1.003926 0.338452,0 0.4435,-0.215623 0.553321,-1.135723 0.05209,-0.436822 0.185748,-0.898288 0.296906,-1.025481 0.111167,-0.127193 0.275345,-0.446439 0.364849,-0.709428 0.08947,-0.262989 0.331856,-0.622082 0.538554,-0.79797 0.332487,-0.282939 0.381366,-0.292739 0.424021,-0.08501 0.02651,0.129106 -0.01667,0.274345 -0.096,0.322765 -0.07932,0.04839 -0.214113,0.394141 -0.299608,0.768292 -0.08554,0.374152 -0.248918,0.957113 -0.363182,1.295479 -0.373041,1.104745 -0.457283,1.583204 -0.350538,1.991075 0.135069,0.516096 0.901601,0.918217 1.518133,0.796405 0.486507,-0.09616 0.64034,-0.429088 0.770261,-1.667103 0.100243,-0.954759 0.783154,-1.88468 1.21606,-1.655798 0.167399,0.08849 0.244703,0.228441 0.195783,0.354386 -0.157364,0.405139 -0.375598,2.836391 -0.293426,3.26908 0.211513,1.113809 1.044747,0.807679 1.044747,-0.383829 0,-0.369169 0.130356,-0.990218 0.289688,-1.380114 0.159331,-0.389895 0.344821,-0.847321 0.412195,-1.016499 0.08668,-0.21772 0.236594,-0.307603 0.512955,-0.307603 0.65056,0 0.6986,0.153137 0.619007,1.973632 -0.07187,1.644248 -0.0671,1.679706 0.253536,1.901611 0.386617,0.267511 1.005002,0.295972 1.200154,0.05524 0.07622,-0.09402 0.18377,-0.601539 0.239069,-1.127876 0.0553,-0.526336 0.179059,-1.110781 0.275014,-1.298762 0.096,-0.187981 0.249985,-0.659299 0.342274,-1.047384 0.137129,-0.576567 0.23209,-0.721551 0.519262,-0.792753 0.193287,-0.04788 0.372688,-0.06619 0.39866,-0.04051 0.02599,0.02568 -0.03759,0.382387 -0.14124,0.792743 -0.298387,1.181308 -0.387715,2.417748 -0.212539,2.94209 0.144047,0.431195 0.202545,0.469886 0.710437,0.469886 0.431611,0 0.645734,-0.09115 0.97262,-0.41409 0.349263,-0.345036 0.405349,-0.487523 0.336267,-0.854452 -0.04556,-0.242191 0.0093,-1.055559 0.122476,-1.807472 0.173819,-1.156951 0.259957,-1.414406 0.560332,-1.674725 0.195214,-0.169178 0.413738,-0.307593 0.485606,-0.307593 0.21201,0 0.149348,1.439919 -0.09341,2.146237 -0.237744,0.69178 -0.311983,1.788004 -0.139739,2.063331 0.05685,0.09085 0.28507,0.165209 0.507156,0.165209 0.553974,0 0.778587,-0.402715 0.89544,-1.605456 0.06317,-0.650634 0.186339,-1.103446 0.359029,-1.320327 0.144544,-0.181536 0.262815,-0.389743 0.262815,-0.462664 0,-0.07294 0.08782,-0.204626 0.195266,-0.292678 0.328252,-0.269127 0.427303,0.09872 0.376716,1.399101 -0.03801,0.976294 -0.0031,1.251683 0.183336,1.455398 0.222666,0.243071 0.249964,0.24034 0.8372,-0.08389 0.539072,-0.297639 0.617391,-0.40339 0.699521,-0.944407 0.05085,-0.335082 0.142804,-0.639964 0.204317,-0.677519 0.06151,-0.03754 0.215013,-0.375164 0.341124,-0.750236 0.205321,-0.610686 0.271504,-0.68195 0.633318,-0.68195 0.433455,0 0.448419,0.03038 0.463393,0.939957 0.01729,1.051241 0.811756,1.149922 1.118997,0.138988 0.07756,-0.255061 0.240147,-0.648302 0.36139,-0.873879 0.121244,-0.225567 0.263851,-0.588537 0.316903,-0.806574 0.05302,-0.218048 0.261272,-0.568946 0.462699,-0.779781 0.498602,-0.521877 0.770965,-0.312494 0.64792,0.498101 -0.05178,0.340811 -0.02351,0.697264 0.06876,0.867557 0.313972,0.579554 1.211193,0.217986 1.592766,-0.641878 0.456123,-1.027834 1.552203,-2.343057 1.956103,-2.3472 0.400876,-0.0041 0.475582,0.108799 0.327155,0.49448 -0.179639,0.466745 0.107522,0.539452 0.988702,0.250314 0.966168,-0.317026 2.527153,-0.225618 3.203975,0.187623 0.265777,0.162272 0.580091,0.29504 0.698466,0.29504 0.118375,0 0.391256,0.14082 0.606404,0.312924 0.215148,0.172103 0.546869,0.388412 0.737154,0.480668 0.190274,0.09228 0.626194,0.351144 0.968706,0.575289 0.342511,0.224155 0.834206,0.504587 1.092672,0.623187 0.258456,0.118599 0.558613,0.303255 0.667016,0.410346 0.108392,0.10708 0.363989,0.233628 0.567974,0.281199 0.203985,0.04757 0.495433,0.196912 0.647661,0.331859 0.152227,0.134937 0.46359,0.290038 0.691931,0.344678 0.228341,0.05463 0.563677,0.212994 0.7452,0.351911 0.181514,0.138927 0.436904,0.252585 0.567529,0.252585 0.130626,0 0.516766,0.146692 0.858098,0.325977 0.341331,0.179285 0.825342,0.370407 1.075596,0.424699 0.250254,0.05432 0.659373,0.217853 0.909161,0.36344 0.641282,0.373794 1.003345,0.234427 1.941098,-0.747187 0.797133,-0.834421 1.352111,-1.2338 1.504826,-1.082945 0.179825,0.177659 0.05447,0.572209 -0.336185,1.057789 -0.228341,0.283848 -0.415167,0.592383 -0.415167,0.685621 0,0.0932 -0.09983,0.251358 -0.221786,0.351369 -0.363161,0.297752 0.229491,0.671913 1.064257,0.671913 0.583477,0 0.705849,-0.05023 0.916337,-0.375962 0.30926,-0.478623 1.391525,-1.538007 1.571216,-1.538007 0.206739,0 0.43244,0.699269 0.341394,1.057655 -0.04422,0.174038 -0.203354,0.437897 -0.353645,0.586368 -0.32703,0.323072 -0.353333,0.658297 -0.06037,0.769357 0.144471,0.05473 0.601164,-0.316627 1.421246,-1.155846 1.161931,-1.189022 1.701231,-1.523081 2.17121,-1.344921 0.281838,0.106845 0.271773,0.958514 -0.01408,1.1929 -0.122092,0.100154 -0.282107,0.307583 -0.35557,0.461057 -0.07353,0.153474 -0.252926,0.493037 -0.398795,0.754584 -0.232597,0.417057 -0.240354,0.500096 -0.06306,0.675269 0.177329,0.175173 0.319077,0.07887 1.152745,-0.783137 0.949289,-0.981583 1.063853,-1.052643 1.456776,-0.90369 0.184382,0.06987 0.18549,0.144707 0.0093,0.637581 -0.109686,0.307112 -0.257306,0.627278 -0.328045,0.711484 -0.336941,0.401087 0.559638,0.777663 0.972568,0.408494 0.14677,-0.131224 0.266854,-0.321322 0.266854,-0.422459 0,-0.101177 0.119835,-0.302263 0.266295,-0.44696 0.14647,-0.144686 0.337075,-0.393711 0.423575,-0.553385 0.226602,-0.418295 0.794017,-0.599524 1.26877,-0.405262 0.367801,0.150508 0.37651,0.174897 0.18985,0.531483 -0.107595,0.205566 -0.315453,0.685253 -0.461892,1.065993 l -0.266253,0.692241 0.293126,0.140308 c 0.416431,0.199326 0.733468,0.188329 1.182373,-0.04102 z"
     id="path1061" />
  <path
     style="fill:#f9f1ed;fill-opacity:1;stroke:none;stroke-width:0.194521;stroke-opacity:1"
     d="m 72.22507,74.985451 c -0.07156,-0.114354 0.01067,-0.361548 0.182652,-0.549304 0.479165,-0.523063 0.388988,-1.286987 -0.206542,-1.749763 -0.489914,-0.380699 -0.54803,-0.385671 -1.027474,-0.08778 -0.279509,0.173669 -0.612483,0.44474 -0.73994,0.602378 -0.200195,0.247583 -0.328014,0.214079 -0.938643,-0.246027 -0.534101,-0.402449 -0.762091,-0.478122 -0.93272,-0.309558 -0.351615,0.347358 -0.538958,0.265117 -0.538958,-0.236585 0,-0.968325 -1.389309,-1.306414 -2.215925,-0.539247 -0.557495,0.517395 -0.997484,0.531165 -1.488019,0.04655 -0.506804,-0.500669 -1.124434,-0.324811 -1.922531,0.5474 -0.34974,0.382234 -0.635969,0.760211 -0.636052,0.839966 -8.3e-5,0.0798 -0.22626,0.145004 -0.502609,0.145004 -0.431312,0 -0.483007,-0.06159 -0.365046,-0.435011 0.0756,-0.239266 0.219404,-0.487186 0.319605,-0.550941 0.100242,-0.06373 0.310058,-0.35944 0.466365,-0.657059 0.250461,-0.476914 0.24839,-0.595094 -0.0174,-0.995783 -0.165845,-0.250048 -0.356492,-0.454643 -0.423648,-0.454643 -0.135876,0 -1.716454,1.251069 -2.282326,1.806511 -0.53348,0.523656 -1.885468,0.208002 -4.075131,-0.951425 -0.285701,-0.151285 -0.649214,-0.275061 -0.8078,-0.275061 -0.158576,0 -0.393265,-0.124911 -0.521519,-0.277587 -0.128265,-0.152667 -0.491322,-0.333589 -0.806806,-0.402039 -0.315474,-0.06844 -0.573598,-0.196033 -0.573598,-0.283522 0,-0.08747 -0.242197,-0.254836 -0.538202,-0.37189 C 51.336798,69.48298 50.830398,69.214385 50.507479,69.00315 50.18456,68.791926 49.700176,68.511187 49.431075,68.379309 49.161985,68.24742 48.897772,68.087 48.843953,68.022815 c -0.05385,-0.06414 -0.582234,-0.340504 -1.174254,-0.614051 -1.316519,-0.608312 -2.648334,-0.82371 -3.558303,-0.575503 -0.580794,0.158425 -0.718296,0.131929 -0.912899,-0.17591 -0.430949,-0.681703 -1.282108,-0.463287 -2.166405,0.555933 -0.438239,0.505099 -0.797362,1.014412 -0.798055,1.131805 -0.0021,0.255122 -0.97145,1.32488 -0.998779,1.101553 -0.01046,-0.08522 -0.0041,-0.474848 0.01398,-0.865818 0.03904,-0.843474 -0.505385,-1.283498 -1.159859,-0.93748 -0.462441,0.244493 -1.379327,1.985775 -1.379327,2.619509 0,0.250836 -0.08802,0.509825 -0.1957,0.575544 -0.114523,0.06987 -0.195711,-0.131121 -0.195711,-0.484648 0,-0.858309 -0.32324,-1.352082 -0.885125,-1.352082 -0.622228,0 -1.379803,1.154086 -1.566971,2.387098 -0.118654,0.781664 -0.197833,0.89968 -0.603618,0.89968 -0.560394,0 -0.605441,-0.398929 -0.163111,-1.444738 0.275438,-0.651258 0.275014,-0.762185 -0.0041,-1.183651 -0.169635,-0.255777 -0.479371,-0.465048 -0.688285,-0.465048 -0.484964,0 -1.372503,1.271888 -1.372503,1.96687 0,0.288054 -0.08802,0.577499 -0.19571,0.643218 -0.123905,0.0756 -0.195711,-0.418919 -0.195711,-1.348031 0,-1.600883 -0.20006,-1.885028 -1.055993,-1.499757 -0.575493,0.259041 -1.292515,2.309697 -1.292515,3.696562 0,0.941849 -0.03169,1.010402 -0.440342,0.953071 -0.382547,-0.05371 -0.428122,-0.15061 -0.347265,-0.738471 0.05116,-0.372177 0.09527,-1.242209 0.09786,-1.933397 l 0.0052,-1.256715 h -0.57135 c -0.794752,0 -1.467971,1.263324 -1.622725,3.045108 -0.08036,0.924816 -0.191827,1.305044 -0.382723,1.305044 -0.466313,0 -0.730019,-0.85525 -0.481153,-1.560504 0.354266,-1.003926 0.272332,-1.803809 -0.232783,-2.272591 -0.612607,-0.568546 -1.224697,-0.533017 -1.641407,0.09524 l -0.342015,0.515646 -0.107501,-0.449886 c -0.05913,-0.247439 -0.347183,-0.626665 -0.640112,-0.842718 l -0.532599,-0.392831 -0.578558,0.547574 c -0.318208,0.301169 -0.631993,0.818114 -0.697316,1.148756 -0.06534,0.330653 -0.193712,0.775198 -0.285329,0.987865 -0.09165,0.212677 -0.215821,0.53894 -0.276018,0.725029 -0.142939,0.441835 -0.449403,0.430622 -0.696498,-0.02547 -0.230423,-0.425334 0.07342,-2.338311 0.499658,-3.146092 0.323437,-0.612926 0.357518,-1.82781 0.05644,-2.011638 -0.418812,-0.255705 -1.09173,0.344555 -1.599714,1.426989 -0.283371,0.6038 -0.541557,1.315335 -0.573743,1.581168 -0.08202,0.677264 -0.914255,0.748937 -1.372191,0.11818 -0.255815,-0.352361 -0.294348,-0.601969 -0.162883,-1.054842 0.221133,-0.761694 0.06472,-1.339796 -0.402078,-1.48616 -0.481246,-0.150886 -0.763447,0.03427 -0.763447,0.500843 0,0.496669 -0.229615,0.473671 -0.751652,-0.07529 -0.422405,-0.444188 -0.423648,-0.4634 -0.08761,-1.359008 0.254903,-0.679423 0.287606,-0.992336 0.129735,-1.241166 -0.28102,-0.442909 -0.927387,-0.520444 -1.239691,-0.148697 -0.671427,0.799219 -0.807562,-0.162283 -0.207838,-1.46794 0.719384,-1.566202 0.337987,-3.019431 -0.577615,-2.200846 -0.542148,0.484689 -0.774062,0.359317 -0.656722,-0.355011 0.08388,-0.510367 0.01191,-0.736886 -0.33518,-1.056377 -0.40826,-0.375747 -0.43244,-0.517293 -0.317628,-1.859114 0.07518,-0.879189 0.279892,-1.739247 0.518589,-2.179199 0.216867,-0.399737 0.39431,-0.836825 0.39431,-0.971323 0,-0.134497 0.08212,-0.244544 0.182518,-0.244544 0.100346,0 0.234897,-0.163039 0.298925,-0.362315 0.160937,-0.500924 2.140734,-2.457063 3.117071,-3.07982 1.167244,-0.744527 1.357,-0.850523 2.608093,-1.456799 0.622859,-0.301834 1.385322,-0.673601 1.694365,-0.826145 0.679836,-0.335552 3.129404,-0.56427 4.105659,-0.383338 0.599849,0.111172 0.805025,0.297557 1.359061,1.234619 0.764865,1.293626 1.313993,1.641895 2.353127,1.492421 1.394135,-0.200554 2.086884,-1.583593 1.422934,-2.8408 -0.150654,-0.285271 -0.330189,-0.771812 -0.398981,-1.081216 -0.256022,-1.151559 -2.258021,-2.789332 -3.728146,-3.049887 -0.888719,-0.157505 -1.917104,-0.623288 -1.818032,-0.823423 0.417673,-0.843823 0.903818,-1.388134 1.240696,-1.389157 0.530094,-0.002 0.870907,-0.360064 0.870907,-0.915987 0,-0.644649 0.562082,-0.790697 0.972807,-0.252779 0.239598,0.313793 0.450987,0.403369 0.738914,0.313087 0.46709,-0.146457 1.028199,-1.199611 1.028199,-1.929857 0,-0.696916 0.31653,-0.630655 0.463869,0.09708 0.116988,0.577815 0.153346,0.597048 1.003004,0.530286 l 0.881635,-0.06926 v 1.029133 c 0,1.337607 0.24489,1.777078 0.990266,1.777078 0.624278,0 0.966821,-0.513589 0.966821,-1.449607 0,-0.538081 0.585631,-0.794994 1.141862,-0.500915 0.244092,0.129055 0.597809,0.13417 1.019303,0.01473 0.546766,-0.154917 0.686981,-0.124359 0.916783,0.199756 0.355653,0.50162 1.113674,0.487319 1.601744,-0.03018 0.336692,-0.357026 0.522648,-0.39539 1.374946,-0.283696 1.670361,0.218897 2.618521,-0.58293 2.277334,-1.925877 -0.129,-0.507748 -2.521758,-2.984423 -2.883303,-2.984423 -0.11035,0 -0.42457,-0.174006 -0.698258,-0.386683 -0.273679,-0.212667 -0.651741,-0.386673 -0.84012,-0.386673 -0.411004,0 -1.061119,-0.891097 -0.776775,-1.064704 0.106445,-0.06496 0.194831,-0.30878 0.196415,-0.541764 0.0021,-0.232984 0.129911,-0.64111 0.285162,-0.906954 0.155252,-0.265844 0.37534,-0.687934 0.489096,-0.937982 0.539062,-1.184991 2.319482,-3.509133 3.354432,-4.378858 1.222625,-1.027436 3.700051,-2.416746 4.309551,-2.416746 0.375132,0 0.507322,0.470776 0.187085,0.666287 -0.252656,0.154272 -0.465464,1.558406 -0.309664,2.04333 0.10221,0.318192 0.263043,0.393037 0.744589,0.346499 0.518433,-0.05013 0.645507,-0.168134 0.815029,-0.75707 0.110463,-0.383737 0.29878,-0.818758 0.418491,-0.966698 0.1197,-0.14794 0.293685,-0.529989 0.386606,-0.848999 0.160988,-0.552659 0.171976,-0.537416 0.232784,0.322939 0.08046,1.138904 0.407069,1.447469 1.156432,1.092653 0.300271,-0.14217 0.579666,-0.431461 0.620881,-0.642859 0.04122,-0.211399 0.240447,-0.59223 0.442744,-0.846299 0.202287,-0.254058 0.3678,-0.5807 0.3678,-0.725867 0,-0.145168 0.09734,-0.263941 0.216267,-0.263941 0.259833,0 0.158503,1.046637 -0.231179,2.387784 -0.270426,0.930728 -0.268355,0.941225 0.277096,1.404717 l 0.549552,0.46698 0.550421,-0.387194 c 0.354483,-0.249353 0.597674,-0.635995 0.68316,-1.086127 0.146998,-0.774093 0.298149,-0.734788 0.608082,0.15814 0.11387,0.328064 0.400648,0.667227 0.637284,0.753704 0.36603,0.13376 0.507229,0.03683 0.945861,-0.649632 0.283579,-0.443778 0.575586,-1.028448 0.648894,-1.299264 0.198641,-0.733775 0.489302,-0.498101 0.427562,0.346673 -0.06141,0.840518 0.290952,1.255478 0.982945,1.157503 0.245417,-0.03478 0.544488,-0.258682 0.664592,-0.497641 l 0.218379,-0.434458 0.222667,0.482796 c 0.174388,0.378111 0.36809,0.482797 0.893285,0.482797 h 0.67062 l -0.106156,1.156582 c -0.122962,1.339632 0.08927,1.737058 0.850714,1.593251 0.325684,-0.06148 0.612276,-0.313087 0.795094,-0.69797 0.758321,-1.596524 1.079676,-2.040784 1.482033,-2.048896 0.284676,-0.0061 0.140577,0.534101 -0.419175,1.570345 -0.311269,0.57625 -0.664157,1.393269 -0.784189,1.815605 -0.198382,0.698001 -0.178758,0.800099 0.215656,1.121789 0.427852,0.348965 0.441429,0.344934 0.975727,-0.290018 0.298003,-0.35414 0.598513,-0.811229 0.667802,-1.015731 0.06928,-0.204503 0.204223,-0.465518 0.299868,-0.580015 0.09568,-0.114508 0.355466,-0.447451 0.577387,-0.739873 0.479962,-0.632455 0.696332,-0.667985 0.865295,-0.142078 0.07715,0.239992 -0.03055,0.638542 -0.280379,1.03785 -0.223049,0.356534 -0.405546,0.761632 -0.405546,0.900211 0,0.13858 -0.14559,0.410899 -0.323541,0.605141 -0.222697,0.243102 -0.329443,0.729929 -0.342491,1.561946 l -0.01895,1.208767 h 0.673561 c 0.633225,0 0.717727,-0.08102 1.411014,-1.353382 0.405599,-0.744354 0.851087,-1.589701 0.989966,-1.878532 0.248286,-0.516362 0.260195,-0.519349 0.711482,-0.17863 l 0.458972,0.346519 -0.410041,0.755791 c -0.225525,0.415686 -0.410041,0.898678 -0.410041,1.073318 0,0.174651 -0.132107,0.425845 -0.293572,0.558225 -0.161454,0.132379 -0.293561,0.409752 -0.293561,0.616404 0,0.206641 -0.09558,0.552106 -0.212352,0.767689 -0.309829,0.571922 -0.05985,1.296327 0.494771,1.433842 0.734555,0.18213 1.243202,-0.0709 1.380082,-0.686604 0.06824,-0.306846 0.250482,-0.66156 0.405019,-0.788272 0.154547,-0.126702 0.280989,-0.380412 0.280989,-0.56379 0,-0.391481 0.632738,-1.165953 0.952571,-1.165953 0.355063,0 0.256074,1.098055 -0.169738,1.8829 -0.215283,0.396801 -0.391422,0.857603 -0.391422,1.023998 0,0.166406 -0.0931,0.3945 -0.206853,0.506899 -0.178542,0.17638 -0.393669,0.872887 -0.907629,2.938643 -0.126431,0.508157 0.179598,0.793479 0.85612,0.798175 0.320247,0.002 0.532196,-0.226007 0.850103,-0.915404 0.232918,-0.505098 0.591367,-1.240112 0.796564,-1.633363 0.205196,-0.393241 0.373081,-0.839997 0.373081,-0.992796 0,-0.152789 0.220171,-0.42032 0.489272,-0.594501 0.474422,-0.307102 0.489272,-0.302805 0.489272,0.141393 0,0.251961 -0.127084,0.710727 -0.282408,1.019496 -0.393493,0.782237 -0.456848,2.765762 -0.09538,2.986449 0.361856,0.220933 0.98515,-0.182119 1.319916,-0.853511 0.298004,-0.597682 0.623543,-0.503748 0.623543,0.17992 0,0.591871 1.401518,2.018655 1.982924,2.018655 0.22948,0 0.720212,-0.184983 1.090518,-0.411072 l 0.673281,-0.411072 -0.08284,-1.473997 c -0.04556,-0.810687 -0.242311,-1.898695 -0.437224,-2.417799 -0.43359,-1.154782 -0.288684,-1.45547 0.901342,-1.870245 0.474422,-0.165352 1.082752,-0.394397 1.351853,-0.508987 0.605576,-0.257864 0.782833,-0.16487 0.782833,0.410684 0,0.246549 0.121388,0.54779 0.269753,0.669438 0.402999,0.330406 1.259346,-0.05923 1.406935,-0.640159 0.0671,-0.264002 0.328739,-0.613857 0.581478,-0.777459 0.455315,-0.294713 0.460079,-0.289936 0.519572,0.521508 0.05312,0.724681 0.119897,0.825797 0.580018,0.878401 0.285991,0.03263 0.614927,-0.05432 0.730961,-0.193342 0.116035,-0.139029 0.440311,-0.535544 0.720596,-0.881132 0.321148,-0.395973 0.684133,-0.628363 0.981495,-0.628363 0.565975,0 0.617298,0.425967 0.160367,1.330834 -0.246899,0.488925 -0.262225,0.675555 -0.07394,0.899741 0.251796,0.299716 1.363948,0.396822 1.363948,0.119091 0,-0.09003 0.154123,-0.343747 0.342491,-0.563739 0.188369,-0.219991 0.495754,-0.581314 0.683067,-0.802942 0.758466,-0.897409 1.277033,-0.221189 0.540118,0.704322 -0.215283,0.270366 -0.391422,0.658175 -0.391422,0.861787 0,0.203613 -0.137388,0.63267 -0.305314,0.953461 -0.429241,0.820017 -0.30487,1.604023 0.267164,1.684126 0.582814,0.08164 0.959945,-0.237803 1.117516,-0.946565 C 86.982474,38.709 87.118577,38.454 87.215609,38.454 c 0.09703,0 0.233674,-0.225321 0.303637,-0.500709 0.185593,-0.730513 0.923576,-1.432687 1.505737,-1.432687 0.277324,0 0.557888,0.08583 0.623491,0.190661 0.06555,0.104871 -0.281466,0.929031 -0.771286,1.831463 -0.710147,1.308399 -0.890562,1.832904 -0.890562,2.589084 0,1.307878 0.375298,1.590171 1.054284,0.793009 0.281259,-0.330212 0.511381,-0.693775 0.511381,-0.807914 0,-0.275552 1.01485,-2.308346 1.303565,-2.611121 0.12494,-0.131019 0.268045,-0.348524 0.318021,-0.483349 0.06752,-0.182119 0.15114,-0.189311 0.325384,-0.02793 0.182196,0.168728 0.182072,0.57136 -5.49e-4,1.80513 -0.207693,1.403213 -0.198331,1.624228 0.08046,1.899626 0.462668,0.457068 1.311973,0.110303 1.55561,-0.635145 0.10426,-0.319011 0.213999,-0.608824 0.243864,-0.644026 0.123449,-0.145495 0.870659,0.387328 0.870659,0.620864 0,0.139285 0.176138,0.410715 0.391421,0.603176 0.215273,0.192473 0.391412,0.556762 0.391412,0.809531 0,0.25278 0.132106,0.771935 0.293571,1.153687 0.432978,1.023732 0.375981,1.195846 -0.440352,1.329801 -0.723298,0.118692 -1.02679,0.2306 -2.810286,1.036285 -0.496168,0.224134 -1.002558,0.407522 -1.125324,0.407522 -0.122755,0 -0.223205,0.07847 -0.223205,0.174426 0,0.09596 -0.242186,0.259235 -0.538191,0.362888 -0.918637,0.32167 -1.614958,1.108848 -1.611603,1.821866 0.0031,0.747136 0.106466,0.91746 0.829205,1.371817 0.495278,0.311358 0.586324,0.314263 1.131071,0.03601 0.693485,-0.354274 0.972361,-0.245127 0.972361,0.380566 0,0.248186 0.131361,0.501047 0.291925,0.561917 0.36167,0.137106 1.201055,-0.72243 1.373911,-1.406906 0.153542,-0.607811 0.645579,-1.175805 1.018609,-1.175805 0.214226,0 0.246691,0.18794 0.146511,0.847915 -0.125655,0.827812 0.118002,1.665497 0.484436,1.665497 0.222397,0 1.185966,-1.626898 1.185966,-2.00239 0,-0.159582 0.296626,-0.600854 0.659166,-0.980601 0.516113,-0.540628 0.810441,-0.690461 1.356296,-0.690461 0.67156,0 0.69133,0.02005 0.53895,0.544905 -0.087,0.299706 -0.27089,0.723187 -0.40864,0.941092 -0.36815,0.582357 -0.11133,1.027425 0.59285,1.027425 0.46443,0 0.65121,-0.118845 0.83565,-0.531687 0.22287,-0.498858 0.24124,-0.458162 0.2976,0.659371 0.043,0.852262 0.145475,1.223426 0.360295,1.30487 0.35157,0.133279 1.24768,-0.05627 1.24768,-0.2639 0,-0.07857 0.16604,-0.331931 0.36899,-0.563094 0.20294,-0.231163 0.57723,-0.7224 0.83176,-1.091631 0.29172,-0.423195 0.62207,-0.671821 0.89377,-0.672649 0.42631,-10e-4 0.42552,0.0041 -0.0733,0.530367 -0.27739,0.292422 -0.67216,0.91478 -0.87727,1.383029 l -0.37293,0.851352 0.43145,0.453692 c 0.2373,0.249526 0.50531,0.453691 0.5956,0.453691 0.0903,0 0.59971,-0.432535 1.13204,-0.961194 0.53232,-0.528659 1.02074,-0.876672 1.08538,-0.773357 0.13631,0.217884 0.0319,0.418265 -0.70818,1.359377 -0.29766,0.378499 -0.60067,0.922268 -0.67335,1.208368 -0.0727,0.286099 -0.21069,0.520188 -0.30666,0.520188 -0.25782,0 -0.21194,0.852365 0.0604,1.12137 0.46659,0.460944 1.04522,0.237423 1.8971,-0.732845 0.46591,-0.530675 0.92541,-0.917051 1.0211,-0.858616 0.33721,0.205884 0.18857,1.753027 -0.21741,2.262903 -0.21529,0.270366 -0.39143,0.55801 -0.39143,0.639207 0,0.08123 -0.12465,0.284975 -0.277,0.452853 -0.42985,0.473651 -0.57263,1.598417 -0.25662,2.021438 0.22954,0.307256 0.33868,0.327062 0.71266,0.129331 0.24289,-0.12841 0.49653,-0.179224 0.56366,-0.112911 0.22905,0.226283 0.005,1.745753 -0.38609,2.617514 -0.83392,1.859207 -1.16957,2.490782 -1.4428,2.714784 -0.15606,0.127971 -0.28377,0.323461 -0.28377,0.434449 0,0.240697 -0.1398,0.397118 -1.99277,2.229429 -2.0516,2.028722 -2.985315,2.604154 -3.988375,2.457994 -0.74009,-0.107847 -0.85138,-0.05944 -1.6146,0.702073 -0.450853,0.449834 -0.81972,0.88773 -0.81972,0.973081 0,0.08532 -0.122683,0.155183 -0.272622,0.155183 -0.149949,0 -0.323323,0.130498 -0.38528,0.290008 -0.06193,0.1595 -0.206584,0.290007 -0.321387,0.290007 -0.147598,0 -0.147381,-0.113259 8.18e-4,-0.386673 0.25042,-0.462254 -0.0496,-1.16004 -0.498726,-1.16004 -0.285742,0 -1.762577,1.363929 -2.548569,2.353727 -0.374521,0.471636 -0.758352,0.62512 -1.422012,0.568629 -0.17153,-0.01463 -0.05364,-0.301578 0.342491,-0.833705 1.523104,-2.046021 0.05209,-3.409337 -1.764969,-1.635747 -1.14238,1.115037 -2.194852,2.282484 -2.380497,2.640533 -0.0846,0.163274 -0.112793,-0.01841 -0.06441,-0.415687 0.06773,-0.555973 -0.01036,-0.795034 -0.367862,-1.126863 -0.426797,-0.396095 -0.488599,-0.40342 -1.037612,-0.122957 -0.321076,0.164032 -0.808763,0.562367 -1.083736,0.885204 -0.274973,0.322826 -0.587578,0.586961 -0.694675,0.586961 -0.107108,0 -0.232898,0.195756 -0.27955,0.435011 -0.0727,0.372985 -0.08864,0.359195 -0.111468,-0.09668 -0.0147,-0.292432 0.06141,-0.531687 0.169024,-0.531687 0.40972,0 0.187509,-0.927527 -0.297403,-1.241412 -0.471905,-0.305465 -0.521891,-0.297506 -1.162148,0.184923 -0.367966,0.27726 -0.998312,0.911158 -1.400773,1.408655 -1.108952,1.370825 -1.991354,2.161256 -2.412713,2.161256 -0.645973,0 -0.625034,-0.312913 0.09258,-1.384073 0.481039,-0.718011 0.67501,-1.209421 0.63657,-1.612698 -0.04991,-0.524158 -0.117868,-0.57713 -0.705103,-0.55003 -0.367697,0.01698 -0.759957,0.178774 -0.903486,0.372688 -0.240427,0.324811 -0.281922,0.320729 -0.795456,-0.07836 -0.297994,-0.231562 -0.666105,-0.421026 -0.818042,-0.421026 -0.281072,0 -2.017264,1.530744 -2.018693,1.77981 -0.001,0.232278 -0.99331,1.595347 -1.27431,1.751032 -0.146325,0.08113 -0.324586,0.05381 -0.396123,-0.06056 z"
     id="path1101" />
  <path
     style="fill:#f9f1ed;fill-opacity:1;stroke:none;stroke-width:0.178571;stroke-opacity:1"
     d="m 271.78511,286.08444 c -0.39286,-0.12425 -0.9675,-0.35789 -1.27696,-0.51921 l -0.56268,-0.29332 0.69507,-1.79238 c 0.38228,-0.9858 1.11034,-2.72645 1.61789,-3.86809 0.69907,-1.57243 0.87889,-2.14561 0.74164,-2.36396 -0.3165,-0.50352 -1.82592,-0.95245 -2.93989,-0.87436 -1.31259,0.092 -2.22816,0.69379 -3.17348,2.08584 -0.39593,0.58305 -1.03536,1.42459 -1.42093,1.87009 -0.38559,0.4455 -0.80003,1.11507 -0.921,1.48794 -0.48795,1.50399 -1.35741,2.19581 -2.75966,2.19581 -0.93432,0 -1.77287,-0.36838 -2.06005,-0.90497 -0.16197,-0.30262 -0.056,-0.64817 0.61521,-2.00709 0.79816,-1.61583 1.38105,-3.41469 1.23291,-3.80483 -0.11153,-0.29374 -0.88786,-0.60454 -1.50998,-0.60454 -0.78461,0 -1.31941,0.42755 -4.72755,3.7795 -3.20156,3.14879 -3.59018,3.39455 -4.23715,2.67966 -0.16255,-0.17961 -0.29553,-0.5078 -0.29553,-0.72929 0,-0.61671 2.45698,-5.1338 3.3225,-6.10832 0.85373,-0.96125 1.04896,-1.62076 0.92443,-3.12259 -0.10633,-1.28205 -0.50718,-1.7073 -1.60941,-1.7073 -1.64036,0 -3.09974,1.043 -7.54824,5.39461 -3.2315,3.1611 -4.37393,4.09944 -4.99107,4.09944 -1.00802,0 -1.10773,-1.21064 -0.19375,-2.35219 1.35211,-1.68877 1.61357,-2.27779 1.61129,-3.62995 -0.002,-1.33782 -0.5372,-2.8068 -1.1009,-3.02312 -0.56126,-0.21538 -3.55451,2.51357 -5.71339,5.20885 -0.85094,1.06238 -1.49419,1.69834 -1.80619,1.78572 -0.72658,0.20348 -3.5965,0.13843 -4.43081,-0.10043 -0.93709,-0.26827 -1.92634,-0.934 -2.0065,-1.3503 -0.0343,-0.17815 0.13947,-0.53693 0.38618,-0.79731 0.2467,-0.26037 0.65888,-0.95219 0.91596,-1.53737 0.25708,-0.58518 0.7727,-1.46911 1.14584,-1.96429 1.57366,-2.08836 2.11083,-3.31903 1.80256,-4.1298 -0.25963,-0.68289 -1.02127,-0.56643 -2.26018,0.3456 -0.58039,0.42725 -2.2988,1.97829 -3.81872,3.44674 -3.90801,3.77573 -4.50133,4.00214 -7.13905,2.72418 -0.82962,-0.40195 -2.39234,-1.01361 -3.4727,-1.35927 -1.08035,-0.34565 -2.88839,-1.05848 -4.01785,-1.58407 -1.12947,-0.52561 -2.5759,-1.08627 -3.21429,-1.24595 -0.65174,-0.163 -1.64171,-0.60027 -2.25763,-0.99716 -0.6033,-0.38878 -1.75168,-0.93841 -2.55196,-1.2214 -0.80027,-0.283 -1.82057,-0.74123 -2.26732,-1.0183 -0.44675,-0.27706 -1.1064,-0.68322 -1.46589,-0.90258 -0.3595,-0.21936 -1.15059,-0.56567 -1.75798,-0.76959 -0.60739,-0.20391 -1.48953,-0.66486 -1.96031,-1.02433 -0.47078,-0.35946 -1.78186,-1.1462 -2.91351,-1.74831 -1.13165,-0.6021 -3.02183,-1.69846 -4.2004,-2.43636 -1.17857,-0.73789 -2.50446,-1.52518 -2.94643,-1.74953 -0.44196,-0.22435 -1.65726,-0.99011 -2.70066,-1.70169 -1.0434,-0.71158 -2.1684,-1.34628 -2.5,-1.41043 -0.3316,-0.0642 -1.44666,-0.51529 -2.47791,-1.00251 -2.57238,-1.21535 -3.90999,-1.48436 -7.32143,-1.47245 -2.43272,0.008 -2.97326,0.0671 -4.46428,0.48394 -3.87575,1.08355 -4.611,1.04293 -4.38222,-0.24212 0.33671,-1.89122 0.32847,-2.11178 -0.0838,-2.24263 -0.90594,-0.28753 -1.59838,-0.1325 -2.50862,0.56166 -1.75596,1.33911 -4.26448,4.6747 -5.82269,7.74247 -1.31648,2.59185 -2.71683,3.80992 -4.38674,3.81574 -0.64251,0.002 -0.95127,-0.0971 -1.28946,-0.4148 -0.72678,-0.68278 -0.86944,-1.42472 -0.72837,-3.78824 0.10756,-1.80212 0.083,-2.19336 -0.16114,-2.56594 -0.41635,-0.63544 -1.03689,-0.56092 -1.91552,0.23002 -1.01255,0.9115 -1.77812,2.16451 -2.42758,3.97322 -0.29976,0.83482 -0.90397,2.32143 -1.34269,3.30357 -0.43872,0.98214 -0.9284,2.14732 -1.08818,2.58929 -0.45491,1.2583 -0.94952,1.9432 -1.64165,2.27326 -0.57077,0.27218 -0.68798,0.27646 -1.10836,0.0405 -0.86603,-0.48609 -1.15122,-1.261 -1.30077,-3.53445 -0.0754,-1.14559 -0.19392,-2.22574 -0.26347,-2.40035 -0.18385,-0.46151 -0.66698,-0.66468 -1.58061,-0.66468 -1.18961,0 -1.58944,0.44949 -2.46048,2.76609 -0.40584,1.07939 -0.93052,2.2536 -1.16595,2.60936 -0.25899,0.39135 -0.56546,1.3299 -0.77595,2.37625 -0.38489,1.9133 -0.48321,2.15752 -1.10141,2.73553 -0.6632,0.62009 -3.21153,2.01277 -3.68301,2.01277 -0.55409,0 -1.41769,-0.93273 -1.55849,-1.68323 -0.0605,-0.32241 -0.12331,-2.50998 -0.13962,-4.86126 -0.0261,-3.76029 -0.0678,-4.33322 -0.34626,-4.75814 -0.17414,-0.26569 -0.40315,-0.48308 -0.50893,-0.48308 -0.32752,0 -1.40659,1.19511 -1.40659,1.55785 0,0.18896 -0.28232,0.73941 -0.62738,1.22321 -0.93248,1.30743 -1.27936,2.42701 -1.69201,5.46112 -0.69534,5.11266 -1.47382,6.30644 -3.89602,5.97444 -1.44391,-0.19791 -1.55611,-0.43884 -1.52994,-3.28541 0.0179,-1.94609 0.10491,-2.74246 0.42376,-3.87764 0.7755,-2.76097 0.91454,-3.59342 1.01614,-6.08385 0.0723,-1.77297 0.0402,-2.62881 -0.10913,-2.90786 l -0.21163,-0.39543 -0.70006,0.39346 c -1.21972,0.68552 -2.08839,1.69896 -2.48367,2.8976 -0.7354,2.22998 -1.48462,8.22979 -1.39977,11.20952 l 0.049,1.72061 -0.72905,0.86868 c -0.40097,0.47779 -1.16081,1.12986 -1.68853,1.44905 -0.87948,0.53197 -1.08395,0.58036 -2.45233,0.58036 -0.82107,0 -1.64239,-0.08 -1.82515,-0.17784 -0.18277,-0.0978 -0.51164,-0.64023 -0.73082,-1.20536 -0.73524,-1.89567 -0.47435,-6.43139 0.64457,-11.20608 0.23015,-0.98215 0.44386,-2.10715 0.47489,-2.5 l 0.0564,-0.71429 -0.77827,0.0501 c -0.99504,0.064 -1.73802,0.45045 -2.05529,1.06903 -0.13768,0.26843 -0.467858,1.29162 -0.733732,2.27377 -0.265873,0.98214 -0.711767,2.38839 -0.990876,3.125 -0.704868,1.86023 -0.832309,2.41423 -1.326716,5.76732 -0.490879,3.32916 -0.759988,4.15402 -1.439531,4.41239 -1.164919,0.44289 -3.112118,0.0348 -4.208025,-0.88202 l -0.610416,-0.51062 v -6.22389 c 0,-5.61502 -0.03089,-6.28042 -0.315748,-6.80167 -0.352352,-0.64475 -0.865898,-0.84653 -2.122163,-0.83384 -1.38003,0.0139 -1.597807,0.27504 -2.831993,3.39539 -1.124183,2.84224 -1.777064,5.36803 -1.781321,6.89137 -0.0082,2.92844 -1.603512,4.80778 -2.943623,3.46767 -0.543516,-0.54351 -0.987295,-2.03659 -0.987295,-3.32167 0,-2.46156 0.677766,-9.07823 1.101872,-10.75698 0.191484,-0.75796 0.178176,-0.88159 -0.131956,-1.22585 -0.845389,-0.93842 -1.87346,-0.74418 -2.994787,0.56584 -1.370522,1.60114 -1.867897,3.0453 -2.516416,7.30656 -0.315011,2.06985 -0.81069,3.26525 -1.588143,3.83 -0.701384,0.5095 -2.891104,0.49078 -4.067522,-0.0347 -1.888673,-0.84372 -2.687323,-2.02575 -2.681184,-3.96822 0.0043,-1.3706 0.227586,-2.35349 1.360054,-5.98775 0.428463,-1.375 1.021054,-3.43835 1.316866,-4.58522 0.518936,-2.01192 1.070884,-3.394 1.448664,-3.62749 0.372229,-0.23005 0.152215,-1.51943 -0.259269,-1.51943 -0.337272,0 -1.821922,1.36759 -2.405577,2.2159 -0.283302,0.41177 -0.724963,1.26691 -0.981468,1.90031 -0.256505,0.63341 -0.737984,1.59361 -1.069953,2.13379 -0.723899,1.17792 -1.077681,2.34719 -1.431797,4.73214 -0.294011,1.98015 -0.550875,2.87984 -0.955918,3.34822 -0.620178,0.71714 -2.235216,0.16807 -5.126478,-1.74287 -2.284224,-1.50973 -2.214315,-1.3605 -2.667925,-5.69499 -0.30394,-2.90429 -0.485141,-3.77278 -0.898983,-4.30873 -0.270008,-0.34968 -0.273017,-0.34967 -0.544546,0.002 -0.15017,0.19454 -0.365209,0.66135 -0.477862,1.03736 -0.278975,0.93114 -1.112975,1.62008 -1.79586,1.4835 -1.352071,-0.27042 -3.224818,-1.81604 -4.18446,-3.45355 -0.428316,-0.73087 -0.454602,-0.89761 -0.354381,-2.24808 0.05954,-0.80226 0.316048,-2.53047 0.570024,-3.84046 0.513269,-2.64739 0.469502,-2.88606 -0.529245,-2.88606 -0.630385,0 -1.839337,0.72048 -2.676088,1.59482 -0.288464,0.30142 -0.637666,0.54804 -0.776005,0.54804 -0.512248,0 -1.280678,-0.75138 -1.750491,-1.71164 -0.458823,-0.9378 -0.478259,-1.08246 -0.3773,-2.80819 0.13084,-2.23649 0.795288,-4.91311 1.622651,-6.53657 1.129099,-2.21554 1.434515,-4.01093 0.810259,-4.76311 -0.337701,-0.4069 -0.643838,-0.29367 -0.996055,0.36842 -0.181504,0.34118 -1.254114,1.74557 -2.383578,3.12086 l -2.053571,2.50052 -0.674163,-0.75479 c -1.102879,-1.23478 -1.273619,-1.66825 -1.246855,-3.1655 0.02316,-1.29543 0.494373,-4.89276 0.680315,-5.19362 0.155105,-0.25096 -0.403213,-1.37284 -1.397722,-2.80856 -1.18671,-1.7132 -1.340706,-2.07405 -1.48464,-3.47893 -0.171397,-1.67294 0.208833,-4.01927 1.091132,-6.73318 0.431052,-1.32589 0.860719,-2.89732 0.954816,-3.49205 0.315344,-1.99313 3.308672,-8.21087 4.176424,-8.67528 0.172658,-0.0924 0.591845,-0.71989 0.931527,-1.39441 1.715563,-3.40665 8.165455,-9.35621 14.082901,-12.99045 1.194588,-0.73366 2.332693,-1.47906 2.529122,-1.65643 0.522278,-0.47162 1.614691,-0.97495 3.046166,-1.40352 0.875409,-0.26209 1.405737,-0.54043 1.736048,-0.91114 0.549952,-0.61723 1.081811,-0.91086 2.449929,-1.35257 0.540178,-0.1744 1.745535,-0.65779 2.678571,-1.07419 2.173202,-0.96987 3.028986,-1.25549 5.117593,-1.708 0.935677,-0.20272 2.396907,-0.637 3.247177,-0.96506 3.466032,-1.33731 8.552607,-1.34507 10.742373,-0.0164 0.540178,0.32777 1.445623,0.81314 2.0121,1.07861 0.81717,0.38295 1.17273,0.69182 1.721021,1.49499 0.380086,0.55678 0.898938,1.19081 1.153004,1.40898 0.512537,0.4401 0.835971,1.12186 1.167273,2.46048 0.427641,1.72787 1.680588,3.22555 3.462123,4.13835 1.860491,0.95325 4.529142,0.42438 5.846392,-1.15863 0.85962,-1.03305 1.60237,-2.73148 1.60237,-3.66408 0,-0.44653 -0.23744,-1.78425 -0.52766,-2.97271 -0.29021,-1.18847 -0.58231,-2.65985 -0.64912,-3.26975 -0.13766,-1.25682 -0.53217,-2.15406 -1.23349,-2.80532 -0.2644,-0.24554 -0.81362,-1.00553 -1.22047,-1.68888 -1.31646,-2.21108 -4.285616,-4.89812 -6.302073,-5.70326 -0.577131,-0.23044 -1.521308,-0.70731 -2.098174,-1.05972 -1.183219,-0.72283 -2.626585,-1.086 -5.46901,-1.37607 -4.078502,-0.4162 -5.056904,-1.03149 -5.037706,-3.16806 0.0089,-0.99353 0.311163,-2.54168 0.617831,-3.16473 0.58546,-1.18946 2.575971,-3.89236 3.045144,-4.13498 0.296145,-0.15314 1.337736,-0.36715 2.31465,-0.47556 2.091559,-0.23213 1.989359,-0.1041 2.164045,-2.71088 0.06581,-0.98215 0.205936,-2.28662 0.311378,-2.89883 0.187854,-1.09068 0.213847,-1.12886 1.289974,-1.89486 1.413768,-1.00634 2.482985,-1.5456 3.064539,-1.5456 0.603843,0 0.913286,0.72824 1.344002,3.16296 0.388241,2.19461 0.489134,2.5471 0.845084,2.95248 0.20773,0.23658 0.331964,0.26363 0.514593,0.11206 0.132414,-0.10989 0.240751,-0.26557 0.240751,-0.34595 0,-0.0804 0.558209,-1.41652 1.240465,-2.9692 0.682257,-1.55269 1.446457,-3.61846 1.698227,-4.59061 0.55326,-2.13628 0.98182,-2.89523 1.72734,-3.05897 0.74219,-0.16302 2.04049,0.0516 2.31533,0.3828 0.14288,0.17216 0.26212,1.14236 0.3271,2.66133 0.0602,1.40849 0.18546,2.47344 0.30481,2.59253 0.32315,0.32244 2.33178,0.44032 2.84279,0.16684 0.24138,-0.12918 0.64995,-0.60275 0.90793,-1.05236 0.61435,-1.07071 1.30314,-1.79962 1.70055,-1.79962 0.3837,0 0.7838,0.72391 1.05087,1.90141 0.10808,0.47654 0.26441,2.71466 0.34739,4.97359 0.15529,4.22756 0.30974,5.21896 0.90594,5.81516 0.41875,0.41876 0.9015,0.43744 1.68585,0.0652 0.78759,-0.37374 1.17898,-1.32913 1.78719,-4.36255 0.61808,-3.08261 1.06313,-4.5311 1.70153,-5.53795 0.28101,-0.4432 0.75298,-1.54651 1.04881,-2.4518 0.771,-2.35934 0.98734,-2.72454 1.61399,-2.72454 1.14086,0 1.42757,0.7523 1.59932,4.19643 0.1849,3.70772 0.55345,4.31966 2.31579,3.84511 1.13666,-0.30607 1.91132,-1.0898 2.17151,-2.19695 0.41957,-1.78526 1.06818,-2.6303 2.01888,-2.6303 1.08725,0 1.41977,0.68034 1.81469,3.71289 0.30078,2.30968 0.512,3.11496 0.90194,3.43858 0.39857,0.33078 1.48532,-0.47217 3.56791,-2.63615 l 1.79257,-1.86263 1.60062,0.80724 c 3.4766,1.75336 5.90336,1.78764 7.80891,0.11031 1.48393,-1.30621 2.04264,-3.36679 1.3015,-4.80001 -0.48075,-0.92966 -4.48085,-5.09749 -6.78906,-7.07374 -2.27276,-1.94589 -4.21697,-3.35845 -4.91783,-3.57303 -0.24554,-0.0752 -0.76786,-0.35606 -1.16072,-0.62419 -1.07262,-0.73208 -2.70188,-1.49964 -4.15919,-1.95944 -3.51517,-1.10908 -4.10109,-3.05091 -2.22032,-7.35855 0.50107,-1.14762 1.07492,-2.63423 1.27523,-3.30358 0.20032,-0.66934 0.64939,-1.63889 0.99795,-2.15454 0.34856,-0.51566 1.10713,-1.93913 1.68572,-3.16329 1.17817,-2.49275 3.69396,-6.37607 5.6136,-8.66505 1.99662,-2.38076 8.15558,-8.49907 8.86058,-8.8021 0.34375,-0.14775 1.17238,-0.76041 1.84139,-1.36147 0.66901,-0.60105 1.47258,-1.200558 1.78571,-1.332238 0.31313,-0.131681 1.19281,-0.687636 1.95484,-1.235457 0.97856,-0.703488 1.66267,-1.053577 2.32917,-1.191941 0.51901,-0.107748 1.4625,-0.516621 2.09664,-0.908607 1.32206,-0.817225 3.20869,-1.461469 5.51598,-1.883595 2.07768,-0.380115 2.43816,-0.288516 2.70937,0.68845 0.28551,1.028463 -0.0155,3.718285 -0.73503,6.568358 -0.30367,1.20284 -0.51619,2.28064 -0.47226,2.39511 0.0877,0.22856 1.28136,0.63295 1.8683,0.63295 0.47807,0 0.54556,-0.12408 0.95185,-1.74992 0.18674,-0.74728 0.61016,-1.96506 0.94093,-2.706175 1.73983,-3.898182 2.86631,-6.212254 3.20364,-6.581085 0.51472,-0.562787 2.45095,-1.462819 3.14695,-1.462819 0.39032,0 0.73221,0.163641 1.09054,0.521978 0.80758,0.807572 0.73553,1.815298 -0.26141,3.656337 -0.87036,1.607293 -1.18089,2.782564 -1.18089,4.469324 0,1.64738 0.41172,1.85207 1.73125,0.86073 0.79012,-0.5936 1.54415,-1.830602 2.36655,-3.882351 0.38461,-0.959542 0.93479,-1.995169 1.22263,-2.301392 0.28783,-0.306223 0.7533,-0.988307 1.03437,-1.515742 0.28108,-0.527436 0.76861,-1.155425 1.08341,-1.395534 0.70086,-0.534574 2.14437,-0.719917 3.25965,-0.418531 0.89524,0.241925 1.80214,1.047242 1.80214,1.600284 0,0.204916 -0.36361,1.045061 -0.80802,1.866987 -1.0991,2.032782 -1.35984,3.450302 -1.38322,7.520049 -0.0198,3.44811 0.11612,4.19643 0.76224,4.19643 1.02662,0 2.9658,-2.79849 3.39448,-4.8987 0.31296,-1.53327 0.63583,-2.360076 1.44525,-3.701096 0.39475,-0.653996 0.9949,-1.895124 1.33368,-2.758062 0.64446,-1.641606 1.12556,-2.317842 1.84706,-2.596254 0.56303,-0.217261 1.90251,-0.01052 2.32785,0.359286 0.32691,0.28423 0.32706,0.330029 0.006,1.898399 -0.47994,2.344114 -0.88956,5.796117 -0.88956,7.496597 0,1.20161 0.0654,1.56138 0.34596,1.90326 0.68472,0.83438 1.29626,-0.03 3.56969,-5.045815 0.81832,-1.805437 1.63869,-3.496681 1.82304,-3.758319 0.46256,-0.656502 2.01827,-1.399294 2.93068,-1.399294 0.47647,0 0.95929,0.145902 1.34887,0.407615 0.76041,0.510832 0.82548,1.085785 0.4376,3.866729 -0.3988,2.859274 -0.3735,4.511784 0.0753,4.917944 0.33295,0.30132 0.37829,0.30221 0.81496,0.0161 0.25432,-0.16664 0.66077,-0.63928 0.90323,-1.05033 0.24246,-0.41104 0.69939,-1.18718 1.0154,-1.72476 0.66383,-1.129288 1.22142,-1.497043 1.84147,-1.214529 0.48246,0.219824 0.79212,0.827659 1.30091,2.553599 0.54307,1.84221 0.63642,1.93091 1.86979,1.77681 1.14948,-0.14362 1.82035,-0.66111 2.44539,-1.88627 0.54912,-1.07639 1.39707,-1.94862 1.89437,-1.94862 0.68868,0 1.47347,0.49501 1.603,1.0111 0.18686,0.7445 -0.0807,4.11061 -0.46278,5.82144 -0.19218,0.86057 -0.58938,2.26682 -0.88265,3.125 -0.59339,1.73638 -0.832,3.21752 -0.57891,3.59363 0.22891,0.34018 1.79374,0.44799 2.34754,0.16173 0.43564,-0.22519 1.01386,-1.21949 1.65903,-2.85292 0.17588,-0.44525 0.67811,-1.35513 1.11608,-2.02195 0.43798,-0.66683 0.79632,-1.28015 0.79632,-1.36294 0,-0.0828 0.24893,-0.70723 0.55316,-1.38766 0.67082,-1.50024 1.03564,-1.69868 3.09893,-1.68564 2.41701,0.0153 3.08516,0.65801 2.91303,2.80227 -0.098,1.22051 -0.44814,2.08606 -1.56182,3.86056 -0.3983,0.63465 -0.8085,1.4784 -0.91153,1.875 -0.10302,0.3966 -0.61268,1.56484 -1.13258,2.59609 -1.16132,2.3036 -1.53966,3.42817 -1.58498,4.7112 -0.0262,0.74135 0.0442,1.06844 0.28093,1.3056 0.43752,0.43833 0.80491,0.17607 1.46986,-1.04925 0.29464,-0.54294 0.78335,-1.26747 1.08602,-1.61006 0.30267,-0.34259 1.131,-1.73273 1.84075,-3.08919 2.62598,-5.01878 3.91551,-6.38144 6.06667,-6.41066 1.35625,-0.0184 2.12231,0.43188 2.69518,1.58429 0.77681,1.5626 0.41281,4.33276 -0.80607,6.13463 -0.24391,0.36057 -0.68041,1.00931 -0.96998,1.44164 -0.28959,0.43234 -0.69914,1.31626 -0.91013,1.96429 -0.21098,0.64802 -0.81937,2.158 -1.352,3.35551 -1.34917,3.03341 -1.81023,5.51076 -1.29867,6.97818 0.36776,1.05498 1.11437,0.85977 2.6295,-0.68752 0.89175,-0.91068 1.22437,-1.45805 2.05307,-3.37866 0.23307,-0.54018 0.75089,-1.35977 1.15069,-1.82132 0.46957,-0.54206 0.76934,-1.09009 0.84668,-1.54789 0.0659,-0.3898 0.39006,-1.13717 0.72045,-1.66082 0.33037,-0.52366 1.04998,-1.69142 1.59911,-2.59502 1.18935,-1.95714 1.65808,-2.375 2.66389,-2.37481 1.1,1.8e-4 2.84125,0.88734 3.392,1.72815 1.28111,1.9558 1.02557,4.42368 -0.72079,6.96086 -0.36073,0.5241 -0.78189,1.47224 -0.97687,2.19924 -0.1885,0.70287 -0.70366,2.0503 -1.14479,2.99429 -0.44114,0.94398 -0.96786,2.2445 -1.1705,2.89004 -0.44309,1.41153 -0.64682,4.33457 -0.35421,5.08194 0.19405,0.49564 0.23603,0.51132 1.09612,0.40945 1.63472,-0.1936 2.24988,-0.90158 3.27423,-3.76829 0.34827,-0.97462 0.86349,-2.05944 1.14495,-2.41071 0.68222,-0.85146 0.87397,-1.23358 1.28273,-2.55623 0.69507,-2.24899 2.11902,-3.72648 3.84022,-3.98459 1.36473,-0.20466 2.25534,0.63358 3.38352,3.1846 0.58583,1.32467 0.57421,1.69015 -0.096,3.01779 -0.30362,0.60151 -0.74003,1.6695 -0.96978,2.37332 -0.22975,0.70382 -0.82341,1.94759 -1.31923,2.76393 -0.49583,0.81635 -0.94883,1.77508 -1.00668,2.13053 -0.12456,0.76538 -0.70779,2.53097 -1.57018,4.7534 -0.75764,1.95248 -1.18534,3.93072 -1.31264,6.07143 -0.10572,1.77752 0.0652,2.7281 0.54323,3.02101 0.42062,0.25774 0.7323,-0.16582 1.01828,-1.38377 0.22797,-0.9709 0.89695,-2.46347 1.77431,-3.95867 0.28816,-0.49107 0.78716,-1.6535 1.10889,-2.58316 0.34737,-1.0037 0.86039,-2.05547 1.26298,-2.58929 0.44056,-0.58414 0.83793,-1.43055 1.13468,-2.41684 0.2512,-0.83482 0.64843,-1.81475 0.88275,-2.17763 0.57554,-0.89129 1.78602,-1.57184 3.02284,-1.69949 0.92179,-0.0951 1.03914,-0.0641 1.52741,0.40367 0.68684,0.65803 0.88157,1.41093 0.88279,3.4131 0.002,2.25359 -0.3885,4.08612 -1.27954,6.01424 -0.73282,1.58572 -0.75802,1.7012 -0.82989,3.80168 -0.0477,1.39555 0.002,2.3962 0.13914,2.8125 0.30405,0.92128 0.76611,0.85321 1.37121,-0.20199 0.99629,-1.73739 2.61102,-3.97074 3.39004,-4.68881 0.74677,-0.68835 0.83193,-0.72304 1.19057,-0.4849 0.45041,0.29905 1.00384,1.33139 2.36673,4.41478 1.69834,3.84227 2.73902,4.99711 4.85825,5.39122 1.2394,0.23049 2.32904,0.0922 4.61038,-0.58503 1.24814,-0.37054 1.28996,-0.40148 1.39418,-1.03159 0.0591,-0.35728 0.10623,-1.73442 0.10478,-3.06032 -0.002,-2.1378 -0.0544,-2.55222 -0.45969,-3.66071 -0.25138,-0.6875 -0.65884,-1.80979 -0.90549,-2.49398 -0.24664,-0.68419 -0.60332,-2.05026 -0.7926,-3.03572 -0.39456,-2.05406 -0.63232,-2.86272 -0.9342,-3.17729 -1.37091,-1.4286 -1.32996,-2.39686 0.17166,-4.05897 0.92509,-1.02397 2.12727,-1.71817 3.73047,-2.15415 0.78571,-0.21367 2.19196,-0.73517 3.125,-1.1589 2.36896,-1.07583 3.67955,-1.39297 5.81932,-1.40819 2.8058,-0.0199 3.2441,0.40157 3.02235,2.90662 -0.0692,0.78123 -0.0545,1.45747 0.0327,1.51139 0.53451,0.33035 3.33825,-2.01122 3.54718,-2.96246 0.0803,-0.36555 0.54903,-0.99301 1.30714,-1.74975 1.30528,-1.30291 2.63723,-1.95075 4.01077,-1.95075 0.83596,0 2.57916,0.76337 2.74801,1.20339 0.0557,0.14527 -0.17176,0.79642 -0.50559,1.447 -0.51664,1.0069 -0.6163,1.40277 -0.66996,2.66094 -0.0347,0.81294 -0.012,1.61095 0.0503,1.77337 0.0865,0.22543 0.92539,-0.53346 3.54519,-3.20709 3.94009,-4.02108 3.88181,-3.98768 6.67522,-3.82488 1.69495,0.0988 3.18364,0.57417 3.37716,1.07843 0.0541,0.14108 -0.23246,1.57898 -0.63688,3.19533 -0.54296,2.17016 -0.72105,3.2147 -0.68089,3.99366 0.0537,1.04093 0.0615,1.05485 0.59011,1.05485 0.48203,0 0.73253,-0.26343 2.5,-2.62904 3.12357,-4.18065 3.49334,-4.47772 5.54362,-4.45385 1.45093,0.0169 3.14256,0.55394 3.54224,1.12456 0.30671,0.43789 0.21255,0.83355 -0.52552,2.20833 -0.31638,0.58929 -0.62481,1.35707 -0.68539,1.70619 -0.0606,0.34911 -0.50731,1.26364 -0.99267,2.03228 -1.28633,2.03708 -1.46932,2.67066 -1.57008,5.43638 -0.0909,2.49334 0.1048,3.77158 0.57728,3.77158 0.33734,0 0.41729,-0.15768 0.82402,-1.62542 0.39496,-1.42531 0.97639,-2.65028 1.94075,-4.08886 0.36211,-0.54018 0.83118,-1.34375 1.04239,-1.78572 0.523,-1.09438 3.09873,-4.49234 3.91588,-5.16591 1.22137,-1.00675 2.5866,-0.9095 4.00844,0.28554 0.42454,0.35683 1.1335,0.80694 1.57547,1.00025 1.23618,0.54068 1.60714,0.96136 1.60714,1.82248 0,0.85761 -0.83857,2.69159 -2.41054,5.27193 -1.29457,2.12503 -2.58946,4.76205 -2.58946,5.27344 0,0.21376 -0.3932,1.18388 -0.87379,2.15582 -1.033,2.08916 -1.44764,3.39406 -1.44764,4.55581 0,1.01289 0.27343,1.82217 0.58147,1.72102 0.12216,-0.0401 0.55537,-0.65815 0.96269,-1.37339 0.40731,-0.71525 0.97468,-1.51428 1.26082,-1.77563 0.37168,-0.33947 0.66259,-0.93168 1.01865,-2.07368 0.95719,-3.07007 3.55009,-7.44095 5.73759,-9.67194 1.26437,-1.28951 1.70512,-1.40084 2.99053,-0.75534 1.90914,0.95871 2.62682,1.95907 2.62682,3.66146 0,0.81122 -0.14619,1.3349 -0.72107,2.58288 -0.88396,1.91895 -1.2715,3.67707 -1.27603,5.78884 -0.006,2.68415 0.50521,3.19985 1.94739,1.96541 1.02312,-0.87577 1.77895,-2.0926 2.213,-3.5628 0.69323,-2.34819 1.58716,-3.01855 2.85427,-2.14045 2.12998,1.47607 6.2125,6.70516 6.22851,7.97779 0.002,0.17126 0.35261,1.09536 0.77877,2.05357 0.89097,2.00331 1.27116,3.30987 1.53691,5.2819 0.25718,1.90828 0.23618,3.08176 -0.0656,3.66528 -0.32952,0.63721 -1.80118,1.43108 -3.02094,1.62961 -0.52947,0.0862 -1.63649,0.47525 -2.46002,0.86463 -0.82356,0.38937 -2.32116,0.92129 -3.32804,1.18203 -2.43478,0.63054 -3.11,0.88002 -4.30505,1.59065 -0.55393,0.32939 -1.65395,0.85469 -2.44452,1.16733 -0.79055,0.31265 -2.25345,1.06815 -3.25087,1.67889 -0.99743,0.61074 -2.54547,1.51223 -3.44011,2.0033 -1.99106,1.09291 -3.46586,2.36353 -3.75291,3.23334 -0.27679,0.83864 -0.14516,2.85293 0.23805,3.64331 0.16711,0.34466 0.48275,0.73839 0.70141,0.87495 1.00148,0.62544 4.59131,0.37307 6.38825,-0.4491 2.16645,-0.99123 2.96763,-0.58313 3.22982,1.64516 0.22568,1.91794 0.30665,2.21305 0.60709,2.21305 0.53657,0 3.08336,-3.93712 3.52309,-5.44643 0.31557,-1.08314 2.37313,-3.03455 4.14239,-3.9287 1.17756,-0.59511 1.58683,-0.71311 2.45524,-0.70789 0.69626,0.004 1.13398,0.0981 1.31887,0.283 0.15222,0.15221 0.38691,0.95296 0.52156,1.77945 0.291,1.7862 0.52485,2.45552 0.90953,2.60314 0.41572,0.15952 0.81077,-0.32733 1.25005,-1.54049 0.56411,-1.55794 1.42988,-2.9094 2.82713,-4.41315 1.79559,-1.93247 1.797,-1.93299 5.28666,-1.92985 3.3382,0.003 4.22809,0.20471 5.42607,1.22993 l 0.69391,0.59386 -0.75657,0.75657 c -1.14195,1.14196 -1.97359,3.36789 -1.96782,5.26701 0.006,1.95979 0.61345,1.77806 1.78896,-0.53516 0.47272,-0.93021 1.12488,-1.89608 1.5674,-2.32131 0.43596,-0.41895 0.83462,-1.00639 0.93866,-1.38317 0.44585,-1.6148 2.54002,-3.34252 4.05143,-3.34252 2.37821,0 2.86178,1.90673 1.11725,4.40535 -0.50447,0.72251 -1.14116,1.85501 -1.4149,2.51665 -0.27373,0.66165 -0.82526,1.70846 -1.22564,2.32624 -0.76559,1.18134 -1.11161,2.35064 -1.11161,3.75653 0,1.28926 0.33593,1.63809 1.57754,1.63809 1.29748,0 1.66943,-0.26153 2.36382,-1.66197 0.30159,-0.60824 0.8817,-1.54786 1.28913,-2.08803 1.26864,-1.68193 4.923,-5.66965 5.55183,-6.0583 0.76461,-0.47255 1.61911,-0.46896 2.90517,0.0122 1.33389,0.49907 1.92344,1.07542 1.76421,1.72471 -0.15804,0.64449 -1.31925,2.42169 -2.93827,4.49691 -1.70371,2.1838 -2.20557,3.15802 -2.30011,4.46498 -0.0955,1.32073 0.28359,1.79067 1.43847,1.78302 1.16557,-0.008 2.25952,-0.65766 2.86562,-1.70253 1.0024,-1.728 3.77274,-4.1853 4.7185,-4.1853 0.6039,0 1.28831,0.39992 2.03763,1.19064 1.1053,1.16639 1.12459,1.28887 0.4213,2.67563 -0.34114,0.67266 -1.09844,1.86588 -1.68291,2.65159 -2.91891,3.92397 -4.48211,6.75232 -4.61284,8.34614 -0.063,0.76836 -0.006,1.02906 0.31061,1.43065 0.21321,0.27008 0.55036,0.49107 0.7492,0.49107 0.50734,0 2.69528,-2.16492 3.67059,-3.63195 0.44655,-0.67168 1.18267,-1.49144 1.63585,-1.82169 0.85107,-0.62022 2.90191,-1.68922 3.24073,-1.68922 0.29375,0 0.9864,1.7091 1.94304,4.79443 l 0.86657,2.79486 -0.982,1.93001 c -0.64455,1.26682 -1.27234,2.21792 -1.82694,2.76786 -0.46472,0.46081 -0.89486,1.04249 -0.95584,1.29261 -0.061,0.25012 -0.55636,1.19367 -1.10079,2.09678 -0.54445,0.9031 -1.13987,2.02435 -1.3232,2.49165 -0.72105,1.83817 -0.6321,3.26037 0.20393,3.26037 0.478,0 0.81572,-0.21851 2.63345,-1.70391 1.73495,-1.41774 2.68271,-2.04608 3.08628,-2.04608 0.58847,0 0.91172,1.1384 0.9127,3.21428 0.002,2.12761 -0.20532,3.22477 -0.96157,5.11342 -0.29059,0.72575 -0.73796,2.337 -0.99416,3.58055 -0.50264,2.43984 -0.89743,3.60277 -1.57989,4.65398 -0.2392,0.36845 -0.6797,1.37184 -0.9789,2.22975 -0.64616,1.85288 -0.83484,2.23222 -1.99157,4.00415 -0.48582,0.74421 -0.96223,1.64498 -1.05868,2.00171 -0.23335,0.86309 -0.315,0.97306 -3.86182,5.20216 -4.51848,5.38762 -11.18846,11.79819 -13.37896,12.8586 -0.41332,0.20008 -1.07954,0.75282 -1.48047,1.2283 -0.45185,0.53587 -0.92391,0.9035 -1.24176,0.96707 -0.28202,0.0564 -0.90749,0.42872 -1.3899,0.82736 -1.16093,0.95933 -2.28568,1.47849 -3.42127,1.57915 -1.40421,0.12448 -1.72617,-0.0258 -2.5821,-1.20481 -0.4259,-0.58668 -0.82475,-1.06903 -0.88634,-1.0719 -0.12995,-0.006 -2.0952,2.16079 -4.29081,4.73092 -2.93898,3.44028 -4.65662,4.84579 -6.44562,5.27427 -1.21713,0.29152 -1.98068,0.6152 -2.26804,0.96143 -0.12696,0.153 -0.2993,0.27818 -0.38298,0.27818 -0.24934,0 -0.64216,-0.92395 -0.77178,-1.8153 -0.14134,-0.97193 0.10351,-1.62035 1.05614,-2.7968 0.74036,-0.9143 0.77855,-1.21881 0.18668,-1.48849 -0.59225,-0.26984 -1.17066,0.11639 -1.59995,1.06838 -0.21657,0.48029 -0.51161,0.79808 -0.88407,0.95228 -0.30746,0.12729 -1.84473,1.48209 -3.41616,3.01068 -3.51143,3.4157 -5.03718,4.6842 -6.126,5.0932 -0.46105,0.17317 -1.05343,0.46496 -1.31639,0.64839 -1.65163,1.15214 -3.28081,1.32893 -5.31118,0.57634 l -1.25613,-0.46561 1.25197,-1.83927 c 0.68857,-1.01159 1.61312,-2.13521 2.05455,-2.49693 1.52634,-1.25071 3.47104,-5.24247 3.47104,-7.12478 0,-1.2971 -0.2534,-1.53638 -1.62702,-1.53638 -0.72693,0 -1.30482,0.11963 -1.81759,0.37627 -1.22736,0.61426 -6.16689,5.75048 -9.42022,9.79531 -4.62701,5.75271 -5.69621,6.79271 -6.98339,6.79271 -1.88661,0 -1.81261,-2.0317 0.18082,-4.96477 0.98825,-1.45409 1.27454,-2.16077 1.27454,-3.14609 0,-1.50257 -0.55522,-2.06771 -2.03136,-2.06771 -0.55237,0 -0.99119,0.15012 -1.58123,0.54094 -0.99388,0.65831 -5.302,5.06995 -5.66921,5.80542 -0.14517,0.29075 -0.73918,1.04601 -1.32002,1.67837 -0.58084,0.63236 -1.39743,1.677 -1.81463,2.32143 -1.00266,1.5488 -1.29728,1.78807 -2.35591,1.91346 -1.05264,0.12466 -2.08119,-0.16618 -2.45005,-0.69276 -0.21986,-0.3139 -0.22272,-0.44072 -0.0188,-0.83499 0.13223,-0.25568 0.40968,-0.61805 0.61657,-0.8053 0.20691,-0.18723 0.45716,-0.64116 0.55613,-1.00871 0.099,-0.36754 0.52898,-1.17845 0.95557,-1.802 0.42659,-0.62354 0.93982,-1.45611 1.14053,-1.85017 0.60118,-1.18025 1.14216,-3.20041 1.08191,-4.04012 -0.0491,-0.68489 -0.12975,-0.81602 -0.66643,-1.08391 -0.57557,-0.2873 -0.64033,-0.2873 -1.13046,0 -1.2333,0.72295 -8.89571,8.86939 -10.81589,11.49914 -0.89693,1.22838 -1.52881,1.72829 -3.16197,2.50161 -1.17644,0.55707 -1.35421,0.58955 -3.20971,0.58637 -1.63463,-0.003 -2.107,-0.0687 -2.81461,-0.39267 -0.98569,-0.45131 -1.15939,-0.75024 -0.77594,-1.33542 0.15171,-0.23157 0.4848,-1.0611 0.74017,-1.84341 0.29845,-0.91428 0.8267,-1.95135 1.47877,-2.90316 3.03022,-4.42307 4.09782,-6.43425 3.87879,-7.30696 -0.25304,-1.00814 -2.0704,-0.15359 -4.43654,2.08616 -0.83793,0.79318 -1.97855,2.03621 -2.53469,2.76232 -0.93388,1.21927 -1.79793,1.88293 -2.45145,1.88293 -0.26334,0 -1.03093,0.71975 -1.03093,0.96666 0,0.33818 -0.59675,1.35477 -0.79525,1.35477 -0.25921,0 -0.63332,-0.7555 -0.63332,-1.27897 0,-0.2031 0.27295,-0.62121 0.60655,-0.92909 0.69566,-0.64205 0.94913,-1.40498 1.11227,-3.34783 0.13379,-1.59324 -0.0311,-3.19524 -0.37727,-3.66522 -0.23821,-0.32343 -0.26341,-0.32275 -0.92648,0.0247 -0.87855,0.46034 -3.86048,3.41312 -4.9592,4.91071 -0.46834,0.6384 -1.07871,1.61009 -1.35634,2.15933 -0.27764,0.54925 -0.70705,1.13114 -0.95425,1.2931 -0.25266,0.16556 -0.8498,1.0739 -1.3638,2.07454 -1.03355,2.01212 -1.66625,2.6635 -3.11284,3.20473 -1.13141,0.42332 -1.82736,0.45384 -2.86507,0.12566 z"
     id="path1112"
     transform="scale(0.26458333)" />
</svg>
